<svg width="16" height="16" viewBox="0 0 16 16" fill="none" xmlns="http://www.w3.org/2000/svg">
<path fill-rule="evenodd" clip-rule="evenodd" d="M15.6152 7.87572C15.8669 8.25027 16.0009 8.6915 16 9.14275C16 10.2665 15.1886 11.2014 14.1196 11.3926C13.229 14.113 10.7939 15.9998 8.00007 15.9998C5.20581 15.9998 2.77118 14.113 1.88052 11.3926C1.12215 11.2558 0.483712 10.7462 0.182238 10.037C-0.119236 9.3278 -0.0431857 8.51445 0.384536 7.87343C0.38221 7.85218 0.381065 7.83081 0.381108 7.80943C0.381108 3.49977 3.78869 0 8.00007 0C12.2114 0 15.619 3.49977 15.619 7.80943C15.619 7.83191 15.6179 7.85401 15.6152 7.87572ZM1.57462 6.96983C1.78067 6.90251 1.99528 6.86493 2.21194 6.85821C2.23594 6.85516 2.26071 6.85364 2.28585 6.85364C3.56469 6.85364 4.72011 5.73479 5.31667 4.21062C5.39039 4.02242 5.55805 3.88716 5.75759 3.85492C5.95713 3.82268 6.15885 3.89826 6.28809 4.05367C7.71893 5.77479 9.55091 6.85364 11.3555 6.85364H14.4103C13.9596 3.62205 11.2587 1.14284 8.00007 1.14284C4.70258 1.14284 1.97614 3.68186 1.57462 6.96983ZM2.31747 7.99991C2.34413 7.99991 2.37042 7.99838 2.39594 7.99458C3.91859 7.94658 5.19972 6.90468 6.00085 5.44222C7.53684 7.01973 9.42177 7.9961 11.3555 7.9961H13.6438C13.6671 7.99877 13.6903 7.99991 13.7143 7.99991C14.3455 7.99991 14.8571 8.51158 14.8571 9.14275C14.8571 9.77398 14.3455 10.2856 13.6827 10.2856C13.4235 10.2856 13.1968 10.4599 13.1303 10.7104C12.4819 13.1503 10.3928 14.857 8.00007 14.857C5.60771 14.857 3.51821 13.1503 2.86984 10.7104C2.80356 10.4601 2.57689 10.2856 2.28585 10.2856C1.65467 10.2856 1.143 9.77393 1.143 9.14275C1.143 8.51152 1.65462 7.99991 2.31747 7.99991ZM7.99969 11.6061V11.607C7.99969 11.8505 7.99969 12.094 8.00007 12.094C7.93587 12.2739 7.84131 12.3509 7.6847 12.4783L7.68469 12.4783L7.67207 12.4886C7.15436 12.9103 5.85266 12.9103 5.33343 12.0105C5.36772 12.0509 5.698 12.0513 6.03857 11.9305C6.2404 11.8588 6.37394 11.7145 6.51543 11.5615C6.6685 11.3961 6.83088 11.2206 7.09913 11.1161C7.40212 10.9983 7.69881 11.0594 7.89382 11.0996L7.89385 11.0996C7.93346 11.1078 7.96888 11.1151 7.99931 11.1199C7.99969 11.1199 7.99969 11.3629 7.99969 11.6061ZM8.00007 12.094C8.00045 12.094 8.00045 11.8504 8.00045 11.6069C8.00045 11.3634 8.00045 11.1199 8.00083 11.1199C8.03126 11.1151 8.06669 11.1078 8.10631 11.0996C8.30133 11.0594 8.59801 10.9983 8.90101 11.1161C9.16917 11.2206 9.33143 11.396 9.48441 11.5614C9.62592 11.7144 9.75949 11.8588 9.96157 11.9305C10.3021 12.0513 10.632 12.0509 10.6667 12.0105C10.1475 12.9103 8.84539 12.9103 8.32806 12.4886C8.32325 12.4847 8.3185 12.4808 8.3138 12.477C8.15851 12.3503 8.06404 12.2733 8.00007 12.094Z" fill="#C0C4CC"/>
</svg>
