<svg width="35" height="32" viewBox="0 0 35 32" fill="none" xmlns="http://www.w3.org/2000/svg">
<path fill-rule="evenodd" clip-rule="evenodd" d="M34.1386 28.7875V24.176V18.2461V12.9779C34.1386 12.6867 34.1403 12.3955 34.1419 12.1044L34.142 12.1024C34.1453 11.5187 34.1486 10.935 34.1386 10.3513C34.1287 9.70455 33.8203 9.09266 33.2531 8.75935C32.8601 8.53051 32.4423 8.51559 32.0095 8.51559H27.7312V2.96879V1.20277C27.7312 0.556062 27.184 0.00884392 26.5373 0.00884392H9.78746C9.53061 0.00884392 9.27322 0.0066361 9.01564 0.00442671C8.49993 3.16777e-06 7.98348 -0.00442671 7.46924 0.00884392H7.43442C6.78771 0.00884392 6.24049 0.556062 6.24049 1.20277V8.51559H2.01697C1.4399 8.51559 0.862835 8.64493 0.469833 9.11256C0.156427 9.48068 0.00718569 9.90353 0.00221098 10.3811C-0.00110549 10.59 -1.16464e-10 10.799 0.00110549 11.0079C0.00165823 11.1124 0.00221098 11.2169 0.00221098 11.3213V30.2003C0.0370339 31.1953 0.798164 31.9664 1.79808 31.9912C1.90458 31.9946 2.01108 31.9934 2.1161 31.9923C2.16805 31.9918 2.21963 31.9912 2.27068 31.9912H30.8205C30.9897 31.9912 31.1588 31.9934 31.3279 31.9956C31.6662 32.0001 32.0045 32.0045 32.3428 31.9912C33.3427 31.9564 34.0988 31.1903 34.1337 30.1954V29.9864C34.1386 29.5785 34.1386 29.1805 34.1386 28.7875ZM31.0941 10.8985C30.9832 10.9844 30.8722 11.0709 30.7611 11.1576C30.5632 11.312 30.3645 11.4669 30.1639 11.6198C29.7584 11.9357 29.3517 12.2504 28.945 12.5651C28.5383 12.8797 28.1317 13.1943 27.7262 13.5102V10.8985H31.0941ZM24.1843 2.39173H13.8816C12.3644 2.39173 10.8421 2.39173 9.32978 2.3967H8.62835V2.96879V10.6846V15.2314C9.49411 15.8999 10.3578 16.5703 11.2208 17.2402C11.7066 17.6173 12.1922 17.9942 12.6778 18.3705C13.2931 18.8469 13.9085 19.3245 14.5238 19.8022L14.5249 19.803L14.526 19.8039L14.5271 19.8047L14.5282 19.8056C15.1451 20.2844 15.762 20.7633 16.3789 21.2409C16.6078 21.415 16.8366 21.5941 17.0655 21.7732C17.1953 21.674 17.3251 21.5755 17.4546 21.4772L17.4549 21.477L17.4551 21.4769L17.4553 21.4767L17.4564 21.4759C17.6837 21.3033 17.9104 21.1313 18.135 20.9573C19.0318 20.2579 19.9311 19.5608 20.8294 18.8645L20.8316 18.8627C21.2232 18.5593 21.6145 18.2559 22.0053 17.9526C22.5625 17.5198 23.1184 17.0883 23.6743 16.6567C24.2303 16.2251 24.7862 15.7936 25.3434 15.3608V2.40168L25.3433 2.40168C24.9553 2.3967 24.5673 2.39173 24.1843 2.39173ZM6.23552 10.8985V13.3759C5.91713 13.1271 5.5975 12.8796 5.27787 12.6321C4.95825 12.3847 4.63863 12.1372 4.32026 11.8884C4.10955 11.7248 3.89762 11.56 3.68568 11.3952L3.68398 11.3938L3.68355 11.3935C3.47086 11.2281 3.25817 11.0627 3.04673 10.8985H6.23552ZM1.90752 29.6167C1.87767 29.6046 1.83788 29.6046 1.7931 29.6289H1.813C1.82792 29.6289 1.84407 29.6259 1.86023 29.6228L1.86026 29.6228C1.87643 29.6198 1.8926 29.6167 1.90752 29.6167ZM28.9053 29.5934H2.39007V28.8373V24.3799V18.5595V13.3858C2.9844 13.8459 3.57873 14.3072 4.17307 14.7685L4.17333 14.7687C4.76787 15.2301 5.3624 15.6916 5.95693 16.1518C6.70311 16.7313 7.44929 17.3096 8.19547 17.8879L8.1968 17.8889C8.94259 18.4669 9.68838 19.0449 10.4342 19.6241C11.0809 20.1241 11.7263 20.6253 12.3718 21.1265C13.0173 21.6277 13.6628 22.1289 14.3095 22.6288C14.6229 22.8726 14.9375 23.1164 15.2522 23.3601C15.5668 23.6039 15.8815 23.8476 16.1949 24.0914C16.1973 24.0926 16.1997 24.0941 16.2021 24.0957C16.2046 24.0975 16.2072 24.0994 16.2098 24.1013C16.2148 24.1051 16.2198 24.1088 16.2247 24.1113C16.4735 24.3053 16.7321 24.4744 17.0704 24.4595C17.4087 24.4446 17.6475 24.3153 17.9161 24.1113C18.0716 23.9905 18.2276 23.8697 18.3838 23.7488L18.3843 23.7484L18.3848 23.748C18.7428 23.4707 19.1017 23.1928 19.4583 22.9124C20.0728 22.4347 20.6873 21.9583 21.3018 21.4819C21.916 21.0057 22.5303 20.5294 23.1445 20.0519C23.8896 19.4733 24.6347 18.8958 25.3797 18.3184L25.3832 18.3158L25.3866 18.3131C26.1317 17.7357 26.8767 17.1583 27.6218 16.5796C28.0135 16.2756 28.4057 15.9716 28.798 15.6674L28.7998 15.6661C29.6974 14.9703 30.596 14.2738 31.4921 13.5749C31.5767 13.5102 31.6612 13.4455 31.7508 13.3759V29.5785C30.8006 29.5934 29.8554 29.5934 28.9053 29.5934Z" fill="#C0C4CC"/>
<path fill-rule="evenodd" clip-rule="evenodd" d="M20.2045 9.89369H13.8369C13.1653 9.89369 12.6728 9.34648 12.643 8.69976C12.6131 8.05305 13.2101 7.50584 13.8369 7.50584H20.2045C20.8761 7.50584 21.3686 8.05305 21.3985 8.69976C21.4283 9.34648 20.8313 9.89369 20.2045 9.89369ZM20.2045 14.2316H13.8369C13.1653 14.2316 12.6728 13.6844 12.643 13.0377C12.6131 12.391 13.2101 11.8438 13.8369 11.8438H20.2045C20.8761 11.8438 21.3686 12.391 21.3985 13.0377C21.4283 13.6844 20.8313 14.2316 20.2045 14.2316Z" fill="#C0C4CC"/>
</svg>
