<svg width="29" height="29" viewBox="0 0 29 29" fill="none" xmlns="http://www.w3.org/2000/svg">
<path d="M22.6563 0H10.5V29H22.6563C26.1598 29 29 26.1598 29 22.6562V6.34375C29 2.84019 26.1598 0 22.6563 0Z" fill="#FF4B55"/>
<path d="M6.34375 0C2.84019 0 0 2.84019 0 6.34375V22.6562C0 26.1598 2.84019 29 6.34375 29H10.5V0H6.34375Z" fill="#73AF00"/>
<circle cx="10.504" cy="14.5" r="6.36527" fill="#FFE15A"/>
<path fill-rule="evenodd" clip-rule="evenodd" d="M7.67244 10.9607H13.3354C13.7263 10.9607 14.0433 11.2776 14.0432 11.6685V15.2078C14.0432 17.1625 12.4586 18.7471 10.5039 18.7471C8.54923 18.7471 6.9646 17.1626 6.9646 15.2078V11.6685C6.9646 11.2776 7.2815 10.9607 7.67244 10.9607ZM12.6275 15.2079V12.3764H8.38039V15.2079C8.38039 16.3788 9.33303 17.3315 10.504 17.3315C11.6749 17.3315 12.6275 16.3788 12.6275 15.2079Z" fill="#FF4B55"/>
<path d="M12.0039 13V15C12.0039 15.8271 11.331 16.5 10.5039 16.5C9.6768 16.5 9.00391 15.8271 9.00391 15V13H12.0039Z" fill="#F5F5F5"/>
<circle cx="7.66687" cy="11.6686" r="0.353947" fill="#FFE15A"/>
<circle cx="13.3298" cy="11.6686" r="0.353947" fill="#FFE15A"/>
<circle cx="7.66687" cy="14.5002" r="0.353947" fill="#FFE15A"/>
<circle cx="13.3298" cy="14.5002" r="0.353947" fill="#FFE15A"/>
<circle cx="10.4984" cy="11.6686" r="0.353947" fill="#FFE15A"/>
<circle cx="12.6235" cy="17.1101" r="0.353947" fill="#FFE15A"/>
<circle cx="8.4151" cy="17.1101" r="0.353947" fill="#FFE15A"/>
<path d="M10.9611 14.3206V14.9301C10.9611 15.1822 10.756 15.3873 10.504 15.3873C10.2519 15.3873 10.0468 15.1822 10.0468 14.9301V14.3206H10.9611Z" fill="#41479B"/>
<path d="M10.9611 12.8755V13.4851C10.9611 13.7372 10.756 13.9422 10.504 13.9422C10.2519 13.9422 10.0468 13.7371 10.0468 13.4851V12.8755H10.9611Z" fill="#41479B"/>
<path d="M10.9611 15.7808V16.3903C10.9611 16.6424 10.756 16.8475 10.504 16.8475C10.2519 16.8475 10.0468 16.6424 10.0468 16.3903V15.7808H10.9611Z" fill="#41479B"/>
<path d="M12.1924 14.3206V14.9301C12.1924 15.1822 11.9873 15.3873 11.7353 15.3873C11.4832 15.3873 11.2781 15.1822 11.2781 14.9301V14.3206H12.1924Z" fill="#41479B"/>
<path d="M9.72966 14.3206V14.9301C9.72966 15.1822 9.52457 15.3873 9.27252 15.3873C9.02046 15.3873 8.81537 15.1822 8.81537 14.9301V14.3206H9.72966Z" fill="#41479B"/>
</svg>
