<svg width="14" height="20" viewBox="0 0 14 20" fill="none" xmlns="http://www.w3.org/2000/svg">
<path fill-rule="evenodd" clip-rule="evenodd" d="M0 7.06842C0 3.18079 3.18079 0 7.06842 0C10.956 0 14.1368 3.18079 13.9955 7.06842C13.9955 8.12868 13.7834 9.18894 13.2886 10.1785C12.2284 12.299 7.77526 19.1554 7.5632 19.4381C7.49252 19.6502 7.20978 19.7916 6.99773 19.7916C6.78568 19.7916 6.57363 19.6502 6.43226 19.4381C6.39445 19.3625 6.04309 18.8166 5.52835 18.0168C4.11865 15.8264 1.48351 11.7318 0.706842 10.1785C0.282737 9.25962 0 8.19936 0 7.06842ZM7.86384 16.5128C9.32196 14.2659 11.5143 10.8877 12.1577 9.54236C12.5111 8.76484 12.7231 7.91663 12.7231 7.06842C12.7231 3.95831 10.1785 1.41368 7.06842 1.41368C3.95831 1.41368 1.41368 3.95831 1.41368 7.06842C1.41368 7.91663 1.62574 8.76484 1.97916 9.54236C2.82737 11.0974 5.7961 15.7626 7.06842 17.7417C7.28788 17.4003 7.55991 16.9811 7.86384 16.5128Z" fill="#C0C4CC"/>
<path fill-rule="evenodd" clip-rule="evenodd" d="M3.53421 7.0685C3.53421 5.08934 5.08926 3.53429 7.06842 3.53429C9.04757 3.53429 10.6026 5.08934 10.6026 7.0685C10.6026 9.04765 9.04757 10.6027 7.06842 10.6027C5.08926 10.6027 3.53421 9.04765 3.53421 7.0685ZM4.94789 7.0685C4.94789 8.27013 5.86678 9.18902 7.06842 9.18902C8.27005 9.18902 9.18894 8.27013 9.18894 7.0685C9.18894 5.86686 8.27005 4.94797 7.06842 4.94797C5.86678 4.94797 4.94789 5.86686 4.94789 7.0685Z" fill="#C0C4CC"/>
</svg>
