<svg width="35" height="30" viewBox="0 0 35 30" fill="none" xmlns="http://www.w3.org/2000/svg">
<path d="M31.1719 20.5078C31.047 20.5688 30.9092 20.6082 30.7665 20.6236C30.6238 20.6389 30.479 20.63 30.3403 20.5974C30.2017 20.5647 30.0719 20.509 29.9584 20.4333C29.8449 20.3576 29.7499 20.2634 29.6789 20.1562L27.0813 16.2656C25.571 17.1408 23.9051 17.8002 22.1484 18.2179L22.951 22.3453C22.9747 22.4668 22.9702 22.5911 22.9378 22.7111C22.9054 22.8311 22.8457 22.9445 22.7621 23.0447C22.6786 23.145 22.5728 23.2301 22.4509 23.2953C22.3289 23.3605 22.1932 23.4044 22.0514 23.4246C21.9931 23.4327 21.9341 23.4371 21.875 23.4375C21.6163 23.4371 21.366 23.3582 21.1688 23.2146C20.9715 23.0711 20.84 22.8723 20.7977 22.6535L20.0088 18.6011C18.3452 18.7996 16.6576 18.7996 14.994 18.6011L14.2051 22.6535C14.1626 22.8727 14.0307 23.0718 13.8329 23.2154C13.6351 23.359 13.3842 23.4377 13.125 23.4375C13.0645 23.4372 13.0042 23.4329 12.9445 23.4246C12.8028 23.4044 12.667 23.3605 12.5451 23.2953C12.4231 23.2301 12.3173 23.145 12.2338 23.0447C12.1502 22.9445 12.0905 22.8311 12.0581 22.7111C12.0257 22.5911 12.0212 22.4668 12.0449 22.3453L12.8516 18.2179C11.0956 17.7989 9.43059 17.1383 7.92149 16.2621L5.33204 20.1562C5.26022 20.2635 5.16446 20.3576 5.05022 20.4331C4.93598 20.5086 4.8055 20.5642 4.66623 20.5965C4.52696 20.6288 4.38163 20.6373 4.23853 20.6215C4.09543 20.6056 3.95737 20.5658 3.83223 20.5043C3.70709 20.4427 3.59732 20.3606 3.50919 20.2627C3.42106 20.1648 3.35629 20.0529 3.31859 19.9336C3.28088 19.8142 3.27098 19.6896 3.28944 19.567C3.3079 19.4443 3.35436 19.326 3.42618 19.2187L6.16055 15.1171C5.2001 14.4059 4.31693 13.6214 3.52188 12.7734C3.42273 12.6785 3.34718 12.5673 3.29984 12.4465C3.25251 12.3258 3.23437 12.198 3.24655 12.0711C3.25873 11.9441 3.30097 11.8206 3.37068 11.7081C3.4404 11.5957 3.53613 11.4965 3.65203 11.4168C3.76793 11.337 3.90157 11.2784 4.0448 11.2444C4.18803 11.2104 4.33783 11.2018 4.48507 11.2191C4.63231 11.2364 4.77389 11.2792 4.90118 11.345C5.02846 11.4107 5.13878 11.498 5.2254 11.6015C7.49493 14.0086 11.4652 16.875 17.5 16.875C23.5348 16.875 27.5051 14.005 29.7746 11.6015C29.8602 11.4959 29.9703 11.4065 30.098 11.3389C30.2256 11.2713 30.3682 11.2269 30.5167 11.2086C30.6652 11.1902 30.8166 11.1982 30.9613 11.2322C31.1061 11.2661 31.2411 11.3252 31.3581 11.4058C31.475 11.4864 31.5714 11.5867 31.6412 11.7006C31.7109 11.8145 31.7526 11.9395 31.7636 12.0677C31.7746 12.196 31.7547 12.3249 31.7051 12.4463C31.6555 12.5677 31.5773 12.679 31.4754 12.7734C30.6804 13.6214 29.7972 14.4059 28.8367 15.1171L31.5711 19.2187C31.6445 19.3256 31.6924 19.444 31.7121 19.5669C31.7317 19.6898 31.7227 19.8148 31.6856 19.9347C31.6485 20.0546 31.5839 20.167 31.4957 20.2654C31.4076 20.3637 31.2975 20.4461 31.1719 20.5078Z" fill="black"/>
</svg>
