<svg width="17" height="13" viewBox="0 0 17 13" fill="none" xmlns="http://www.w3.org/2000/svg">
<path fill-rule="evenodd" clip-rule="evenodd" d="M12.3475 1.9498V2.60036H12.9962V12.998H3.24904V2.60036H4.54828V1.9498C4.54828 1.00507 5.23278 0 6.49808 0H10.3977C11.3424 0 12.3475 0.682619 12.3475 1.9498ZM13.6467 2.60036H16.2452C16.6035 2.60036 16.8958 2.89453 16.8958 3.25092V12.3475C16.8958 12.7058 16.6016 12.998 16.2452 12.998H13.6467V2.60036ZM11.0464 2.60036H5.84752V1.9498C5.84752 1.9498 5.84752 1.29924 6.49808 1.29924H10.3977C10.3977 1.29924 11.0482 1.29924 11.0482 1.9498V2.60036H11.0464ZM0.650562 2.60036H2.59848H2.60036V12.9999H0.650562C0.292281 12.9999 0 12.7058 0 12.3494V3.25092C0 2.89264 0.292281 2.60036 0.650562 2.60036Z" fill="#C0C4CC"/>
</svg>
