<svg width="13" height="13" viewBox="0 0 13 13" fill="none" xmlns="http://www.w3.org/2000/svg">
<path fill-rule="evenodd" clip-rule="evenodd" d="M0 6.49991C0 2.91586 2.91618 0 6.49991 0C10.0843 0 12.9998 2.91586 12.9998 6.49991C12.9998 10.084 10.0843 12.9998 6.49991 12.9998C2.91618 12.9998 0 10.084 0 6.49991ZM6.58278 8.59256L9.36572 5.80929C9.75279 5.42222 9.75279 4.79433 9.36572 4.40726C8.97897 4.02052 8.35043 4.02052 7.96401 4.40726L5.88144 6.48951L5.03645 5.64452C4.64873 5.25713 4.02149 5.25713 3.63442 5.64452C3.24735 6.03159 3.24735 6.65916 3.63442 7.04623L5.18075 8.59256C5.37412 8.78593 5.62827 8.88278 5.88144 8.88278C6.13526 8.88278 6.38909 8.78593 6.58278 8.59256Z" fill="#C0C4CC"/>
</svg>
