<svg width="29" height="29" viewBox="0 0 29 29" fill="none" xmlns="http://www.w3.org/2000/svg">
<path d="M22.3912 15.3056L6.44446 4.02783V24.9723H22.3912L12.8228 15.3056H22.3912Z" fill="#22408B"/>
<path d="M20.1389 14.5001L7.25 5.79688V24.1668H20.1389L10.9346 14.5001H20.1389Z" fill="#DD2F45"/>
<path d="M11.5122 19.3663L11.9843 18.709L11.1787 18.788L11.2593 17.9824L10.6011 18.4545L10.2676 17.7166L9.93413 18.4545L9.27599 17.9824L9.35574 18.788L8.55019 18.709L9.02224 19.3663L8.28435 19.6998L9.02224 20.0333L8.55019 20.6907L9.35574 20.6117L9.27599 21.4173L9.93413 20.9452L10.2676 21.6831L10.6011 20.9452L11.2593 21.4173L11.1787 20.6117L11.9843 20.6907L11.5122 20.0333L12.2501 19.6998L11.5122 19.3663ZM10.2668 13.609L10.2676 13.6107L10.2684 13.609L10.2829 13.6107C11.4655 13.6107 12.4257 12.7004 12.5256 11.5428C12.2441 12.0666 11.7902 12.477 11.2407 12.7044L11.0998 12.5078L11.592 12.2855L11.0998 12.0632L11.4147 11.6242L10.8766 11.6773L10.9306 11.1392L10.4908 11.4542L10.2684 10.9612L10.0461 11.4542L9.60627 11.1392L9.66024 11.6773L9.12213 11.6242L9.4371 12.0632L8.94491 12.2855L9.4371 12.5078L9.30258 12.6955C8.76335 12.4657 8.31843 12.0592 8.04108 11.5428C8.0873 12.1028 8.34128 12.6254 8.75313 13.0077C9.16497 13.39 9.70489 13.6045 10.2668 13.609Z" fill="white"/>
</svg>
