<svg width="24" height="24" viewBox="0 0 24 24" fill="none" xmlns="http://www.w3.org/2000/svg">
<path d="M12 20.9619C9.99133 20.3652 8.32233 19.1482 6.993 17.3109C5.66367 15.4736 4.99933 13.4032 5 11.0999V5.6919L12 3.0769L19 5.6919V11.0999C19 12.0986 18.8593 13.0586 18.578 13.9799C18.2967 14.9012 17.9167 15.7926 17.438 16.6539L14.488 13.7039C14.646 13.4512 14.771 13.1796 14.863 12.8889C14.955 12.5982 15.0007 12.3019 15 11.9999C15 11.1692 14.7077 10.4616 14.123 9.8769C13.5383 9.29224 12.8307 8.9999 12 8.9999C11.1693 8.9999 10.4617 9.29224 9.877 9.8769C9.29233 10.4616 9 11.1692 9 11.9999C9 12.8306 9.29233 13.5382 9.877 14.1229C10.4617 14.7076 11.1693 14.9999 12 14.9999C12.3247 14.9999 12.6383 14.9509 12.941 14.8529C13.2437 14.7549 13.5197 14.6079 13.769 14.4119L16.84 17.4769C16.166 18.2549 15.4393 18.9582 14.66 19.5869C13.8807 20.2156 12.994 20.6739 12 20.9619ZM12 13.9999C11.45 13.9999 10.9793 13.8042 10.588 13.4129C10.1967 13.0216 10.0007 12.5506 10 11.9999C9.99933 11.4492 10.1953 10.9786 10.588 10.5879C10.9807 10.1972 11.4513 10.0012 12 9.9999C12.5487 9.99857 13.0197 10.1946 13.413 10.5879C13.8063 10.9812 14.002 11.4519 14 11.9999C13.998 12.5479 13.8023 13.0189 13.413 13.4129C13.0237 13.8069 12.5527 14.0026 12 13.9999Z" fill="black"/>
</svg>
