<svg width="29" height="29" viewBox="0 0 29 29" fill="none" xmlns="http://www.w3.org/2000/svg">
<path d="M0.243555 4.5708C0.0849609 5.12588 0 5.71494 0 6.32666V9.14736H29V6.32666C29 5.72061 28.915 5.13154 28.7564 4.5708H0.243555Z" fill="#F5F5F5"/>
<path d="M0 22.6391C0 23.2451 0.0849609 23.8342 0.243555 24.3949H28.7508C28.9094 23.8398 28.9943 23.2508 28.9943 22.6391V19.8184H0V22.6391Z" fill="#F5F5F5"/>
<path d="M5.90193 28.966H23.098C25.7941 28.7791 28.0314 26.9042 28.7508 24.3894H0.24353C0.96853 26.9099 3.20017 28.7791 5.90193 28.966Z" fill="#FF4B55"/>
<path d="M23.098 0H5.90194C3.20585 0.186914 0.968542 2.06172 0.249207 4.57656H28.7564C28.0314 2.05605 25.7998 0.186914 23.098 0Z" fill="#FF4B55"/>
<rect y="9.14746" width="29" height="10.6711" fill="#41479B"/>
</svg>
