<svg width="48" height="48" viewBox="0 0 48 48" fill="none" xmlns="http://www.w3.org/2000/svg">
<path d="M42 23.2734C42.9375 23.9141 43.7734 24.6406 44.5078 25.4531C45.2422 26.2656 45.875 27.1562 46.4062 28.125C46.9375 29.0938 47.3281 30.1172 47.5781 31.1953C47.8281 32.2734 47.9688 33.375 48 34.5C48 36.3594 47.6484 38.1094 46.9453 39.75C46.2422 41.3906 45.2734 42.8203 44.0391 44.0391C42.8047 45.2578 41.375 46.2188 39.75 46.9219C38.125 47.625 36.375 47.9844 34.5 48C33.0781 48 31.7031 47.7891 30.375 47.3672C29.0469 46.9453 27.8281 46.3359 26.7188 45.5391C25.6094 44.7422 24.625 43.7891 23.7656 42.6797C22.9062 41.5703 22.2422 40.3438 21.7734 39H3V3H9V0H12V3H33V0H36V3H42V23.2734ZM6 6V12H39V6H36V9H33V6H12V9H9V6H6ZM21.0703 36C21.0234 35.5156 21 35.0156 21 34.5C21 33.1562 21.1875 31.8516 21.5625 30.5859C21.9375 29.3203 22.5078 28.125 23.2734 27H21V24H24V26.0156C24.6406 25.2188 25.3516 24.5156 26.1328 23.9062C26.9141 23.2969 27.7578 22.7734 28.6641 22.3359C29.5703 21.8984 30.5156 21.5703 31.5 21.3516C32.4844 21.1328 33.4844 21.0156 34.5 21C36.0625 21 37.5625 21.2578 39 21.7734V15H6V36H21.0703ZM34.5 45C35.9531 45 37.3125 44.7266 38.5781 44.1797C39.8438 43.6328 40.9531 42.8828 41.9062 41.9297C42.8594 40.9766 43.6094 39.8672 44.1562 38.6016C44.7031 37.3359 44.9844 35.9688 45 34.5C45 33.0469 44.7266 31.6875 44.1797 30.4219C43.6328 29.1562 42.8828 28.0469 41.9297 27.0938C40.9766 26.1406 39.8672 25.3906 38.6016 24.8438C37.3359 24.2969 35.9688 24.0156 34.5 24C33.0469 24 31.6875 24.2734 30.4219 24.8203C29.1562 25.3672 28.0469 26.1172 27.0938 27.0703C26.1406 28.0234 25.3906 29.1328 24.8438 30.3984C24.2969 31.6641 24.0156 33.0312 24 34.5C24 35.9531 24.2734 37.3125 24.8203 38.5781C25.3672 39.8438 26.1172 40.9531 27.0703 41.9062C28.0234 42.8594 29.1328 43.6094 30.3984 44.1562C31.6641 44.7031 33.0312 44.9844 34.5 45ZM36 33H40.5V36H33V27H36V33ZM9 24H12V27H9V24ZM15 24H18V27H15V24ZM15 18H18V21H15V18ZM9 30H12V33H9V30ZM15 30H18V33H15V30ZM24 21H21V18H24V21ZM30 21H27V18H30V21ZM36 21H33V18H36V21Z" fill="black"/>
</svg>
