<svg width="24" height="24" viewBox="0 0 24 24" fill="none" xmlns="http://www.w3.org/2000/svg">
<g clip-path="url(#clip0_69_301)">
<path d="M15.3334 2.66675H4.66671C4.31309 2.66675 3.97395 2.80722 3.7239 3.05727C3.47385 3.30732 3.33337 3.64646 3.33337 4.00008V20.0001C3.33337 20.3537 3.47385 20.6928 3.7239 20.9429C3.97395 21.1929 4.31309 21.3334 4.66671 21.3334H15.3334C15.687 21.3334 16.0261 21.1929 16.2762 20.9429C16.5262 20.6928 16.6667 20.3537 16.6667 20.0001V16.0001H10.42C10.2432 16.0001 10.0737 15.9298 9.94864 15.8048C9.82361 15.6798 9.75337 15.5102 9.75337 15.3334C9.75337 15.1566 9.82361 14.987 9.94864 14.862C10.0737 14.737 10.2432 14.6667 10.42 14.6667H16.6667V4.00008C16.6667 3.64646 16.5262 3.30732 16.2762 3.05727C16.0261 2.80722 15.687 2.66675 15.3334 2.66675Z" fill="black"/>
<path d="M18.7733 11.5199C18.6458 11.4107 18.4817 11.3536 18.3139 11.3601C18.1461 11.3666 17.987 11.4362 17.8683 11.5549C17.7495 11.6736 17.68 11.8328 17.6735 12.0006C17.667 12.1683 17.7241 12.3324 17.8333 12.4599L20.0866 14.6666H16.6666V15.9999H20.0866L17.8333 18.3066C17.7635 18.3664 17.7068 18.4399 17.6668 18.5226C17.6268 18.6053 17.6043 18.6954 17.6008 18.7872C17.5972 18.879 17.6127 18.9706 17.6462 19.0561C17.6797 19.1417 17.7306 19.2194 17.7955 19.2844C17.8605 19.3493 17.9382 19.4002 18.0237 19.4337C18.1093 19.4672 18.2008 19.4827 18.2927 19.4791C18.3845 19.4756 18.4746 19.4531 18.5573 19.4131C18.64 19.3731 18.7135 19.3164 18.7733 19.2466L22.6666 15.3799L18.7733 11.5199Z" fill="black"/>
</g>
<defs>
<clipPath id="clip0_69_301">
<rect width="24" height="24" fill="white"/>
</clipPath>
</defs>
</svg>
