<svg width="17" height="16" viewBox="0 0 17 16" fill="none" xmlns="http://www.w3.org/2000/svg">
<path fill-rule="evenodd" clip-rule="evenodd" d="M1.13913 14.0959H4.17127H4.17165C5.26275 15.2742 6.7432 16 8.38137 16C10.0195 16 11.5 15.2742 12.5911 14.0959H15.6236C15.8692 14.0959 16.0873 13.939 16.1653 13.7062C16.5585 12.5351 16.7627 11.2798 16.7627 9.9917C16.7627 4.49468 13.0364 0 8.38137 0C3.7263 0 3.15957e-05 4.49468 3.15957e-05 9.9917C-0.00290466 11.254 0.198833 12.5084 0.597392 13.7062C0.67548 13.939 0.893572 14.0959 1.13913 14.0959ZM6.93825 12.6703C7.3878 12.8535 7.78439 12.9709 8.38327 12.9716L8.38365 12.972C8.98444 12.972 9.37265 12.8543 9.82372 12.6703C10.1243 12.5476 10.4055 12.3575 10.6672 12.0996C10.3171 12.031 10.0245 11.9335 9.79019 11.8063C9.72109 11.7689 9.65617 11.7316 9.59392 11.6959L9.59386 11.6959C9.33903 11.5497 9.12891 11.4291 8.85948 11.4291C8.65704 11.4291 8.57878 11.5224 8.51656 11.5966C8.4755 11.6456 8.44143 11.6862 8.38327 11.6862V11.6882C8.32734 11.6867 8.29249 11.6464 8.25062 11.5981C8.18582 11.5233 8.10423 11.4291 7.90173 11.4291C7.63212 11.4291 7.42249 11.5495 7.16819 11.6957C7.10591 11.7315 7.04095 11.7688 6.97178 11.8063C6.73748 11.9335 6.44528 12.031 6.09555 12.0996C6.35689 12.3575 6.63805 12.5476 6.93825 12.6703ZM13.4433 12.953H15.2038C15.4817 11.9905 15.6217 10.9935 15.6198 9.9917C15.6198 5.08366 12.353 1.14291 8.38137 1.14291C4.40976 1.14291 1.14294 5.08366 1.14294 9.9917C1.14294 11.0142 1.28504 12.0116 1.55896 12.953H3.31904C2.66644 11.8546 2.28585 10.5331 2.28585 9.11508C2.28585 8.79393 2.30528 8.47505 2.34414 8.16037C2.37037 7.94661 2.51456 7.76574 2.71711 7.69254C4.38415 7.08782 5.79303 5.92908 6.70815 4.41011C6.81153 4.23843 6.99729 4.13345 7.19769 4.13345C7.3981 4.13345 7.58386 4.23843 7.68724 4.41011C9.01286 6.6158 11.3515 8.01482 13.9218 8.1398C14.2142 8.154 14.4486 8.38692 14.4647 8.67925C14.4727 8.82402 14.4769 8.96955 14.4769 9.11508C14.4769 10.5331 14.0967 11.8546 13.4433 12.953ZM8.38137 14.8586C5.66429 14.8586 3.42876 12.3034 3.42876 9.11661C3.42876 8.95622 3.43447 8.79659 3.4459 8.63773C4.9371 8.02663 6.23399 7.02144 7.19769 5.72979C8.66621 7.70164 10.8888 8.97374 13.3328 9.24118C13.2753 12.3697 11.063 14.8586 8.38137 14.8586Z" fill="#C0C4CC"/>
</svg>
