<svg width="30" height="28" viewBox="0 0 30 28" fill="none" xmlns="http://www.w3.org/2000/svg">
<path d="M27.4664 22.9688C25.8597 20.3369 23.3508 18.2861 20.3437 17.1467C21.8391 16.0999 22.9438 14.6405 23.5011 12.9752C24.0585 11.3099 24.0403 9.52319 23.4492 7.86808C22.8581 6.21296 21.724 4.77338 20.2076 3.75327C18.6911 2.73315 16.8692 2.18422 15 2.18422C13.1307 2.18422 11.3088 2.73315 9.7924 3.75327C8.27597 4.77338 7.14188 6.21296 6.55077 7.86808C5.95965 9.52319 5.94148 11.3099 6.49884 12.9752C7.05619 14.6405 8.16081 16.0999 9.65623 17.1467C6.6491 18.2861 4.14026 20.3369 2.53357 22.9688C2.43401 23.1182 2.36766 23.2847 2.33845 23.4585C2.30925 23.6324 2.31778 23.8099 2.36356 23.9806C2.40933 24.1513 2.4914 24.3116 2.6049 24.4521C2.7184 24.5926 2.861 24.7103 3.02423 24.7984C3.18746 24.8864 3.36798 24.9429 3.55507 24.9645C3.74216 24.9861 3.93199 24.9723 4.11328 24.9241C4.29457 24.8759 4.46362 24.7941 4.61037 24.6837C4.75713 24.5732 4.8786 24.4364 4.96755 24.2812C7.09099 20.8556 10.841 18.8125 15 18.8125C19.159 18.8125 22.909 20.8567 25.0324 24.2812C25.2252 24.5706 25.531 24.7786 25.8851 24.8613C26.2392 24.9441 26.614 24.895 26.93 24.7246C27.2461 24.5541 27.4788 24.2756 27.5789 23.948C27.679 23.6203 27.6386 23.2691 27.4664 22.9688ZM8.90623 10.5C8.90623 9.37512 9.26362 8.2755 9.93321 7.3402C10.6028 6.40489 11.5545 5.67591 12.668 5.24544C13.7815 4.81496 15.0067 4.70233 16.1888 4.92178C17.3709 5.14124 18.4567 5.68292 19.3089 6.47833C20.1611 7.27374 20.7415 8.28716 20.9766 9.39042C21.2118 10.4937 21.0911 11.6373 20.6299 12.6765C20.1686 13.7158 19.3876 14.604 18.3855 15.229C17.3834 15.8539 16.2052 16.1875 15 16.1875C13.3844 16.1858 11.8355 15.586 10.6931 14.5198C9.5507 13.4535 8.90809 12.0079 8.90623 10.5Z" fill="black"/>
</svg>
