<svg width="28" height="30" viewBox="0 0 28 30" fill="none" xmlns="http://www.w3.org/2000/svg">
<path fill-rule="evenodd" clip-rule="evenodd" d="M13.875 11.25C14.6344 11.25 15.25 10.6344 15.25 9.875C15.25 9.11561 14.6344 8.5 13.875 8.5C13.1156 8.5 12.5 9.11561 12.5 9.875C12.5 10.6344 13.1156 11.25 13.875 11.25ZM15 12.5H13H12V13H13V20.5H12V21H13H15H16V20.5H15V12.5ZM14 25C19.5228 25 24 20.5228 24 15C24 9.47715 19.5228 5 14 5C8.47715 5 4 9.47715 4 15C4 20.5228 8.47715 25 14 25ZM3 15.0016C3 8.92557 7.92487 4 14 4C20.0751 4 25 8.92557 25 15.0016C25 21.0776 20.0751 26.0031 14 26.0031C7.92487 26.0031 3 21.0776 3 15.0016Z" fill="#0078FF"/>
</svg>
