<svg width="31" height="30" viewBox="0 0 31 30" fill="none" xmlns="http://www.w3.org/2000/svg">
<path d="M14.2542 6.64688C14.4431 6.62078 14.6249 6.55892 14.7891 6.46485C14.9533 6.37077 15.0968 6.24631 15.2113 6.09858C15.3258 5.95085 15.4091 5.78273 15.4565 5.60384C15.5039 5.42494 15.5144 5.23877 15.4874 5.05594C15.4604 4.87312 15.3965 4.69722 15.2993 4.5383C15.2021 4.37938 15.0735 4.24055 14.9208 4.12973C14.7682 4.01891 14.5945 3.93827 14.4096 3.89242C14.2247 3.84657 14.0324 3.8364 13.8434 3.8625C11.7075 4.15993 9.69917 5.02676 8.04333 6.36597C6.38749 7.70518 5.14945 9.46392 4.46778 11.4454C3.7861 13.4268 3.68769 15.5527 4.18356 17.5852C4.67942 19.6177 5.75 21.4765 7.27547 22.9536C8.80094 24.4307 10.7211 25.4679 12.821 25.9489C14.921 26.43 17.1178 26.336 19.1657 25.6775C21.2136 25.019 23.0317 23.8219 24.4165 22.2203C25.8013 20.6186 26.6982 18.6756 27.0068 16.6088C27.0613 16.2395 26.962 15.8645 26.7307 15.5661C26.4994 15.2678 26.1551 15.0705 25.7736 15.0178C25.3921 14.9651 25.0045 15.0612 24.6962 15.285C24.3879 15.5089 24.1841 15.842 24.1296 16.2113C23.8977 17.7612 23.2246 19.2181 22.1858 20.419C21.147 21.6199 19.7834 22.5173 18.2475 23.011C16.7117 23.5046 15.0642 23.5749 13.4894 23.214C11.9146 22.8531 10.4747 22.0752 9.33069 20.9675C8.1867 19.8598 7.38378 18.4658 7.01179 16.9416C6.6398 15.4174 6.7134 13.8231 7.22437 12.3371C7.73533 10.8511 8.6635 9.53198 9.90502 8.52737C11.1465 7.52277 12.6524 6.87043 14.2542 6.64688ZM19.375 4.38938C19.0114 4.26506 18.6117 4.28559 18.2638 4.44646C17.9159 4.60733 17.6483 4.89537 17.5198 5.24719C17.3914 5.59902 17.4126 5.98582 17.5788 6.32251C17.7451 6.65919 18.0427 6.91818 18.4062 7.0425C18.9914 7.2425 19.5442 7.4975 20.0647 7.8075C20.2273 7.90995 20.4093 7.97988 20.6002 8.01316C20.7911 8.04644 20.9869 8.0424 21.1762 8.00128C21.3654 7.96017 21.5443 7.8828 21.7021 7.77374C21.86 7.66469 21.9937 7.52616 22.0954 7.36631C22.197 7.20646 22.2646 7.02853 22.2941 6.84301C22.3236 6.65749 22.3144 6.46813 22.2671 6.2861C22.2198 6.10407 22.1353 5.93305 22.0186 5.78313C21.9019 5.6332 21.7554 5.50739 21.5876 5.41313C20.8894 4.99733 20.1478 4.65417 19.375 4.38938ZM25.4103 9.11438C25.3129 8.95206 25.1829 8.81026 25.028 8.69733C24.8731 8.5844 24.6963 8.50263 24.5082 8.45683C24.3201 8.41104 24.1245 8.40215 23.9328 8.43069C23.7411 8.45923 23.5572 8.52462 23.392 8.62301C23.2268 8.7214 23.0837 8.85079 22.971 9.00356C22.8583 9.15634 22.7784 9.32939 22.7359 9.51254C22.6934 9.69568 22.6892 9.8852 22.7236 10.0699C22.758 10.2547 22.8303 10.4309 22.9361 10.5881C23.2552 11.0881 23.5174 11.6194 23.7227 12.1819C23.8557 12.5277 24.1238 12.809 24.4692 12.9653C24.8146 13.1216 25.2096 13.1402 25.5691 13.0172C25.9285 12.8942 26.2236 12.6394 26.3907 12.3078C26.5578 11.9761 26.5836 11.5942 26.4624 11.2444C26.1898 10.5006 25.8372 9.78671 25.4103 9.11438ZM15.5 10.7813C15.5 10.4083 15.3469 10.0506 15.0744 9.78689C14.8019 9.52316 14.4323 9.375 14.0469 9.375C13.6615 9.375 13.2919 9.52316 13.0194 9.78689C12.7468 10.0506 12.5937 10.4083 12.5937 10.7813V16.4063C12.5937 17.1825 13.2447 17.8125 14.0469 17.8125H17.9219C18.3073 17.8125 18.6769 17.6643 18.9494 17.4006C19.2219 17.1369 19.375 16.7792 19.375 16.4063C19.375 16.0333 19.2219 15.6756 18.9494 15.4119C18.6769 15.1482 18.3073 15 17.9219 15H15.5V10.7813Z" fill="black"/>
</svg>
