<svg width="46" height="49" viewBox="0 0 46 49" fill="none" xmlns="http://www.w3.org/2000/svg">
<path fill-rule="evenodd" clip-rule="evenodd" d="M15.2316 14.2917C15.2316 12.1257 16.0339 10.0485 17.4622 8.51696C18.8904 6.98542 20.8275 6.125 22.8474 6.125C24.8672 6.125 26.8043 6.98542 28.2325 8.51696C29.6608 10.0485 30.4631 12.1257 30.4631 14.2917C30.4631 16.4576 29.6608 18.5348 28.2325 20.0664C26.8043 21.5979 24.8672 22.4584 22.8474 22.4584C20.8275 22.4584 18.8904 21.5979 17.4622 20.0664C16.0339 18.5348 15.2316 16.4576 15.2316 14.2917ZM15.2316 26.5417C12.7068 26.5417 10.2854 27.6172 8.50011 29.5317C6.71482 31.4461 5.71185 34.0426 5.71185 36.75C5.71185 38.3745 6.31363 39.9324 7.38481 41.0811C8.45598 42.2297 9.90881 42.8751 11.4237 42.8751H34.271C35.7859 42.8751 37.2387 42.2297 38.3099 41.0811C39.3811 39.9324 39.9829 38.3745 39.9829 36.75C39.9829 34.0426 38.9799 31.4461 37.1946 29.5317C35.4093 27.6172 32.9879 26.5417 30.4631 26.5417H15.2316Z" fill="black"/>
</svg>
