<svg width="29" height="29" viewBox="0 0 29 29" fill="none" xmlns="http://www.w3.org/2000/svg">
<path d="M22.6562 0H6.34375C2.84019 0 0 2.84019 0 6.34375V22.6562C0 26.1598 2.84019 29 6.34375 29H22.6562C26.1598 29 29 26.1598 29 22.6562V6.34375C29 2.84019 26.1598 0 22.6562 0Z" fill="#C8414B"/>
<rect y="6.03955" width="29" height="16.9208" fill="#FFD250"/>
<path d="M12.636 14.5234L13.1036 12.6166C13.1466 12.441 12.9992 12.2744 12.8007 12.2744H12.4713C12.2729 12.2744 12.1254 12.441 12.1685 12.6166L12.636 14.5234Z" fill="#C8414B"/>
<rect x="12.0843" y="13.5234" width="1.10296" height="4.24805" fill="#F5F5F5"/>
<rect x="11.809" y="13.0239" width="1.65447" height="0.49974" fill="#FAB446"/>
<rect x="10.7057" y="14.5232" width="2.75732" height="0.49974" fill="#C8414B"/>
<path d="M13.4633 16.5225L11.8088 16.0227V15.5229L13.4633 16.0227V16.5225Z" fill="#C8414B"/>
<path d="M4.36402 14.5234L4.83158 12.6166C4.87463 12.441 4.72719 12.2744 4.52873 12.2744H4.19936C4.00089 12.2744 3.8534 12.441 3.8965 12.6166L4.36402 14.5234Z" fill="#C8414B"/>
<path d="M6.29413 13.0239C5.98957 13.0239 5.74268 13.2477 5.74268 13.5237V16.7722C5.74268 17.3795 6.36804 18.5214 8.50005 18.5214C10.6321 18.5214 11.2574 17.3794 11.2574 16.7722V13.5237C11.2574 13.2477 11.0105 13.0239 10.706 13.0239L6.29413 13.0239Z" fill="#F5F5F5"/>
<path d="M8.49999 15.5228H5.74261V13.5489C5.74261 13.259 5.97767 13.0239 6.26762 13.0239H8.49999V15.5228Z" fill="#C8414B"/>
<path d="M8.5 15.5227H11.2574V16.7091C11.2574 17.4339 10.6698 18.0216 9.9449 18.0216H9.81248C9.08765 18.0216 8.5 17.434 8.5 16.7091V15.5227Z" fill="#C8414B"/>
<path d="M5.74261 15.5229H8.49999V16.7093C8.49999 17.4342 7.9124 18.0218 7.18752 18.0218H7.05509C6.33026 18.0218 5.74261 17.4342 5.74261 16.7093C5.74261 16.7093 5.74261 15.5229 5.74261 15.5229Z" fill="#FAB446"/>
<path d="M7.94855 17.7663V15.5229H7.39709V17.9966C7.60213 17.9588 7.78752 17.8765 7.94855 17.7663Z" fill="#C8414B"/>
<path d="M6.84558 17.9966V15.5229H6.29413V17.7663C6.45516 17.8765 6.64049 17.9588 6.84558 17.9966Z" fill="#C8414B"/>
<rect x="6.29388" y="14.5232" width="1.65447" height="0.49974" fill="#FFB441"/>
<rect x="6.29388" y="13.5234" width="1.65447" height="0.499797" fill="#FAB446"/>
<rect x="6.5697" y="13.8208" width="1.10296" height="0.9054" fill="#FAB446"/>
<rect x="3.8125" y="13.5234" width="1.10296" height="4.24805" fill="#F5F5F5"/>
<rect x="3.53662" y="17.5217" width="1.65447" height="0.49974" fill="#FAB446"/>
<rect x="3.53662" y="13.0239" width="1.65447" height="0.49974" fill="#FAB446"/>
<rect x="3.2608" y="18.022" width="2.20587" height="0.49974" fill="#5064AA"/>
<rect x="12.0843" y="17.5217" width="1.65447" height="0.49974" fill="#FAB446"/>
<rect x="11.5331" y="18.022" width="2.20587" height="0.49974" fill="#5064AA"/>
<rect x="6.84558" y="12.5244" width="3.30895" height="0.49974" fill="#FAB446"/>
<rect x="8.22424" y="11.0251" width="0.551453" height="1.49933" fill="#FFB441"/>
<path fill-rule="evenodd" clip-rule="evenodd" d="M7.1214 11.025C7.1214 11.4384 7.49245 11.7747 7.94858 11.7747C8.40471 11.7747 8.77576 11.4384 8.77576 11.025C8.77576 10.6117 8.40471 10.2754 7.94858 10.2754C7.49245 10.2754 7.1214 10.6117 7.1214 11.025ZM7.67285 11.025C7.67285 10.8872 7.79644 10.7751 7.94858 10.7751C8.10072 10.7751 8.22431 10.8872 8.22431 11.025C8.22431 11.1629 8.10072 11.2749 7.94858 11.2749C7.79644 11.2749 7.67285 11.1629 7.67285 11.025Z" fill="#F5F5F5"/>
<path fill-rule="evenodd" clip-rule="evenodd" d="M8.2243 11.025C8.2243 11.4384 8.59536 11.7747 9.05148 11.7747C9.50767 11.7747 9.87866 11.4384 9.87866 11.025C9.87866 10.6117 9.50761 10.2754 9.05148 10.2754C8.59536 10.2754 8.2243 10.6117 8.2243 11.025ZM8.77576 11.025C8.77576 10.8872 8.89935 10.7751 9.05148 10.7751C9.20362 10.7751 9.32721 10.8872 9.32721 11.025C9.32721 11.1629 9.20362 11.2749 9.05148 11.2749C8.89935 11.2749 8.77576 11.1629 8.77576 11.025Z" fill="#F5F5F5"/>
<path fill-rule="evenodd" clip-rule="evenodd" d="M9.32727 11.5248C9.32727 11.9381 9.69832 12.2744 10.1545 12.2744C10.6106 12.2744 10.9817 11.9381 10.9817 11.5248C10.9817 11.1114 10.6106 10.7751 10.1545 10.7751C9.69832 10.7751 9.32727 11.1114 9.32727 11.5248ZM9.87872 11.5248C9.87872 11.3869 10.0023 11.2749 10.1545 11.2749C10.3066 11.2749 10.4302 11.3869 10.4302 11.5248C10.4302 11.6626 10.3066 11.7747 10.1545 11.7747C10.0023 11.7747 9.87872 11.6626 9.87872 11.5248Z" fill="#F5F5F5"/>
<path fill-rule="evenodd" clip-rule="evenodd" d="M6.01843 11.5248C6.01843 11.9381 6.38949 12.2744 6.84561 12.2744C7.30174 12.2744 7.67279 11.9381 7.67279 11.5248C7.67279 11.1114 7.30174 10.7751 6.84561 10.7751C6.38949 10.7751 6.01843 11.1114 6.01843 11.5248ZM6.56989 11.5248C6.56989 11.3869 6.69348 11.2749 6.84561 11.2749C6.99775 11.2749 7.12134 11.3869 7.12134 11.5248C7.12134 11.6626 6.99775 11.7747 6.84561 11.7747C6.69348 11.7747 6.56989 11.6626 6.56989 11.5248Z" fill="#F5F5F5"/>
<path fill-rule="evenodd" clip-rule="evenodd" d="M9.05145 16.0227H10.7059V16.7723C10.7059 17.1857 10.3348 17.522 9.87863 17.522C9.42256 17.522 9.05145 17.1857 9.05145 16.7723V16.0227ZM10.1544 16.7724V16.5225H9.60296V16.7724C9.60296 16.9102 9.72667 17.0223 9.87869 17.0223C10.0307 17.0223 10.1544 16.9102 10.1544 16.7724Z" fill="#FAB446"/>
<path d="M9.90517 15.023H9.85221C9.56227 15.023 9.32721 14.788 9.32721 14.498V14.0487C9.32721 13.7587 9.56227 13.5237 9.85221 13.5237H9.90517C10.1951 13.5237 10.4302 13.7587 10.4302 14.0487V14.498C10.4302 14.788 10.1951 15.023 9.90517 15.023Z" fill="#FFA0D2"/>
<ellipse cx="8.50003" cy="15.5228" rx="0.82718" ry="0.749639" fill="#5064AA"/>
<rect x="8.22424" y="10.0254" width="0.551453" height="1.49933" fill="#FAB446"/>
<path d="M6.84558 12.5242L6.29413 12.0244L6.61715 11.7317C7.11649 11.2791 7.7938 11.0249 8.5 11.0249C9.20619 11.0249 9.8835 11.2792 10.3828 11.7317L10.7059 12.0244L10.1544 12.5242H6.84558Z" fill="#C8414B"/>
<ellipse cx="8.50003" cy="12.2537" rx="0.275727" ry="0.4412" fill="#FFD250"/>
<ellipse cx="7.39725" cy="12.2537" rx="0.275727" ry="0.4412" fill="#FFD250"/>
<ellipse cx="9.60281" cy="12.2537" rx="0.275727" ry="0.4412" fill="#FFD250"/>
<rect x="3.53662" y="14.5232" width="2.75732" height="0.49974" fill="#C8414B"/>
<path d="M3.53674 16.5225L5.19116 16.0227V15.5229L3.53674 16.0227V16.5225Z" fill="#C8414B"/>
</svg>
