<svg width="28" height="15" viewBox="0 0 28 15" fill="none" xmlns="http://www.w3.org/2000/svg">
<path d="M7.5 15C5.41667 15 3.64583 14.2708 2.1875 12.8125C0.729167 11.3542 0 9.58333 0 7.5C0 5.41667 0.729167 3.64583 2.1875 2.1875C3.64583 0.729167 5.41667 0 7.5 0H20C22.0833 0 23.8542 0.729167 25.3125 2.1875C26.7708 3.64583 27.5 5.41667 27.5 7.5C27.5 9.58333 26.7708 11.3542 25.3125 12.8125C23.8542 14.2708 22.0833 15 20 15H7.5ZM20 11.25C21.0417 11.25 21.9271 10.8854 22.6562 10.1562C23.3854 9.42708 23.75 8.54167 23.75 7.5C23.75 6.45833 23.3854 5.57292 22.6562 4.84375C21.9271 4.11458 21.0417 3.75 20 3.75C18.9583 3.75 18.0729 4.11458 17.3438 4.84375C16.6146 5.57292 16.25 6.45833 16.25 7.5C16.25 8.54167 16.6146 9.42708 17.3438 10.1562C18.0729 10.8854 18.9583 11.25 20 11.25Z" fill="black"/>
</svg>
