<svg width="37" height="40" viewBox="0 0 37 40" fill="none" xmlns="http://www.w3.org/2000/svg">
<ellipse cx="18.5" cy="19.9153" rx="18.5" ry="19.9153" fill="#0078FF"/>
<path fill-rule="evenodd" clip-rule="evenodd" d="M25.5994 27.2218L22.3734 30.6821C22.1537 30.9186 21.7837 30.9186 21.564 30.6696L18.3381 27.2094C17.9681 26.8235 18.2225 26.1514 18.7428 26.1514H20.8125V18.6707C20.8125 17.9861 21.3328 17.426 21.9687 17.426C22.6047 17.426 23.125 17.9861 23.125 18.6707V26.1638H25.1947C25.7034 26.1638 25.9694 26.836 25.5994 27.2218ZM15.4359 9.16113L18.6619 12.6214C19.0319 13.0073 18.7775 13.6794 18.2572 13.6794H16.1875V21.1601C16.1875 21.8447 15.6672 22.4048 15.0312 22.4048C14.3953 22.4048 13.875 21.8447 13.875 21.1601V13.6794H11.7937C11.285 13.6794 11.019 13.0073 11.389 12.6214L14.615 9.16113C14.8462 8.92463 15.2047 8.92463 15.4359 9.16113Z" fill="white"/>
</svg>
