<svg width="29" height="29" viewBox="0 0 29 29" fill="none" xmlns="http://www.w3.org/2000/svg">
<rect y="6.55933" width="29" height="2.26843" fill="#F5F5F5"/>
<path d="M27.4857 2.02222H1.51434C0.964473 2.67821 0.541311 3.44739 0.283936 4.29094H28.7161C28.4587 3.44739 28.0355 2.67821 27.4857 2.02222Z" fill="#F5F5F5"/>
<rect y="11.0969" width="29" height="2.26843" fill="#F5F5F5"/>
<rect y="15.6343" width="29" height="2.26843" fill="#F5F5F5"/>
<rect y="20.1716" width="29" height="2.26843" fill="#F5F5F5"/>
<path d="M28.7161 24.7092H0.283936C0.541254 25.5528 0.964473 26.3219 1.51434 26.9779H27.4856C28.0355 26.3219 28.4587 25.5528 28.7161 24.7092Z" fill="#F5F5F5"/>
<path d="M22.6562 0H6.34375C4.40959 0 2.67791 0.865865 1.51434 2.23079H27.4856C26.3221 0.865865 24.5904 0 22.6562 0Z" fill="#FF4B55"/>
<rect y="8.9231" width="29" height="2.23051" fill="#FF4B55"/>
<path d="M29 6.34384C29 5.68845 28.9006 5.05634 28.7161 4.46167H0.283939C0.0994043 5.05634 0 5.68845 0 6.34384V6.6924H29V6.34384Z" fill="#FF4B55"/>
<rect y="13.3848" width="29" height="2.23051" fill="#FF4B55"/>
<path d="M29 22.6562V22.3076H0V22.6562C0 23.3116 0.0994043 23.9437 0.283939 24.5384H28.7161C28.9006 23.9437 29 23.3116 29 22.6562Z" fill="#FF4B55"/>
<path d="M27.4857 26.7693H1.51434C2.67791 28.1342 4.40959 29.0001 6.34375 29.0001H22.6562C24.5904 29.0001 26.3221 28.1342 27.4857 26.7693Z" fill="#FF4B55"/>
<rect y="17.8464" width="29" height="2.23051" fill="#FF4B55"/>
<path d="M16 0H6.50001C2.91015 0 0 2.91015 0 6.50001V16H16V0Z" fill="#41479B"/>
<path d="M2.21263 2.05003C2.19775 2.0957 2.25128 2.13348 2.29148 2.10561L2.6016 1.89056L2.91173 2.10561C2.95187 2.13348 3.00545 2.0957 2.99058 2.05003L2.87563 1.69738L3.18229 1.47765C3.22197 1.44917 3.20153 1.38808 3.15214 1.38769L2.771 1.38483L2.70594 1.19556C2.54256 1.33376 2.38673 1.48007 2.23874 1.63359L2.3277 1.69738L2.21263 2.05003Z" fill="#F5F5F5"/>
<path d="M2.65027 3.96109L2.77084 4.31198L3.15199 4.31484C3.20132 4.31523 3.22181 4.37631 3.18213 4.40479L2.87547 4.62453L2.99042 4.97718C3.0053 5.02284 2.95176 5.06058 2.91157 5.03276L2.60144 4.81765L2.29132 5.03276C2.25118 5.06063 2.19759 5.02284 2.21247 4.97718L2.32742 4.62453L2.02076 4.40479C1.98108 4.37637 2.00151 4.31523 2.05085 4.31484L2.43199 4.31198L2.55257 3.96109C2.5684 3.91564 2.63465 3.91564 2.65027 3.96109Z" fill="#F5F5F5"/>
<path d="M2.65027 7.20742L2.77084 7.55831L3.15199 7.56118C3.20132 7.56156 3.22181 7.62265 3.18213 7.65113L2.87547 7.87086L2.99042 8.22352C3.0053 8.26918 2.95176 8.30692 2.91157 8.2791L2.60144 8.06405L2.29132 8.2791C2.25118 8.30692 2.19759 8.26918 2.21247 8.22352L2.32742 7.87086L2.02076 7.65113C1.98108 7.62271 2.00151 7.56156 2.05085 7.56118L2.43199 7.55831L2.55257 7.20742C2.5684 7.16198 2.63465 7.16198 2.65027 7.20742Z" fill="#F5F5F5"/>
<path d="M2.65027 10.1901L2.77084 10.541L3.15199 10.5438C3.20132 10.5442 3.22181 10.6053 3.18213 10.6338L2.87547 10.8535L2.99042 11.2062C3.0053 11.2518 2.95176 11.2896 2.91157 11.2618L2.60144 11.0467L2.29132 11.2618C2.25118 11.2896 2.19759 11.2518 2.21247 11.2062L2.32742 10.8535L2.02076 10.6338C1.98108 10.6054 2.00151 10.5442 2.05085 10.5438L2.43199 10.541L2.55257 10.1901C2.5684 10.1446 2.63465 10.1446 2.65027 10.1901Z" fill="#F5F5F5"/>
<path d="M2.65027 12.9042L2.77084 13.2551L3.15199 13.258C3.20132 13.2583 3.22181 13.3194 3.18213 13.3479L2.87547 13.5676L2.99042 13.9203C3.0053 13.966 2.95176 14.0037 2.91157 13.9759L2.60144 13.7608L2.29132 13.9759C2.25118 14.0037 2.19759 13.966 2.21247 13.9203L2.32742 13.5676L2.02076 13.3479C1.98108 13.3195 2.00151 13.2583 2.05085 13.258L2.43199 13.2551L2.55257 12.9042C2.5684 12.8588 2.63465 12.8588 2.65027 12.9042Z" fill="#F5F5F5"/>
<path d="M4.11848 2.42007L4.23905 2.77096L4.6202 2.77382C4.66953 2.77421 4.69002 2.8353 4.65034 2.86372L4.34368 3.08346L4.45864 3.43611C4.47351 3.48177 4.41998 3.51956 4.37978 3.49169L4.06977 3.27658L3.75964 3.49169C3.71951 3.51956 3.66592 3.48177 3.68079 3.43611L3.79575 3.08346L3.48914 2.86372C3.44946 2.8353 3.4699 2.77415 3.51923 2.77382L3.90037 2.77096L4.02095 2.42007C4.03662 2.37463 4.10287 2.37463 4.11848 2.42007Z" fill="#F5F5F5"/>
<path d="M4.11847 5.66641L4.23905 6.0173L4.62019 6.02016C4.66952 6.02055 4.69002 6.08164 4.65033 6.11012L4.34367 6.32985L4.45863 6.6825C4.4735 6.72817 4.41997 6.76595 4.37978 6.73808L4.06965 6.52298L3.75952 6.73808C3.71939 6.76595 3.6658 6.72817 3.68067 6.6825L3.79563 6.32985L3.48902 6.11012C3.44934 6.08169 3.46978 6.02055 3.51911 6.02016L3.90025 6.0173L4.02083 5.66641C4.03661 5.62096 4.10286 5.62096 4.11847 5.66641Z" fill="#F5F5F5"/>
<path d="M4.11847 8.7506L4.23905 9.10148L4.62019 9.10435C4.66952 9.10473 4.69002 9.16582 4.65033 9.1943L4.34367 9.41404L4.45863 9.76669C4.4735 9.81235 4.41997 9.85009 4.37978 9.82227L4.06965 9.60716L3.75952 9.82227C3.71939 9.85014 3.6658 9.81235 3.68067 9.76669L3.79563 9.41404L3.48902 9.1943C3.44934 9.16588 3.46978 9.10473 3.51911 9.10435L3.90025 9.10148L4.02083 8.7506C4.03661 8.70521 4.10286 8.70521 4.11847 8.7506Z" fill="#F5F5F5"/>
<path d="M4.11847 11.5204L4.23905 11.8713L4.62019 11.8742C4.66952 11.8746 4.69002 11.9356 4.65033 11.9641L4.34367 12.1839L4.45863 12.5365C4.4735 12.5822 4.41997 12.62 4.37978 12.5921L4.06965 12.377L3.75952 12.5921C3.71939 12.62 3.6658 12.5822 3.68067 12.5365L3.79563 12.1839L3.48902 11.9641C3.44934 11.9357 3.46978 11.8746 3.51911 11.8742L3.90025 11.8713L4.02083 11.5204C4.03661 11.475 4.10286 11.475 4.11847 11.5204Z" fill="#F5F5F5"/>
<path d="M5.58667 1.03404L5.70725 1.38493L6.08839 1.3878C6.13772 1.38818 6.15822 1.44927 6.11854 1.47769L5.81187 1.69743L5.92683 2.05008C5.9417 2.09575 5.88817 2.13348 5.84798 2.10566L5.53785 1.89056L5.22772 2.10566C5.18759 2.13353 5.134 2.09575 5.14887 2.05008L5.26383 1.69743L4.95722 1.47769C4.91754 1.44927 4.93798 1.38813 4.98731 1.3878L5.36845 1.38493L5.48903 1.03404C5.50481 0.988653 5.57106 0.988653 5.58667 1.03404Z" fill="#F5F5F5"/>
<path d="M5.58667 3.96109L5.70725 4.31198L6.08839 4.31484C6.13772 4.31523 6.15822 4.37631 6.11854 4.40479L5.81187 4.62453L5.92683 4.97718C5.9417 5.02284 5.88817 5.06058 5.84798 5.03276L5.53785 4.81765L5.22772 5.03276C5.18759 5.06063 5.134 5.02284 5.14887 4.97718L5.26383 4.62453L4.95722 4.40479C4.91754 4.37637 4.93798 4.31523 4.98731 4.31484L5.36845 4.31198L5.48903 3.96109C5.50481 3.91564 5.57106 3.91564 5.58667 3.96109Z" fill="#F5F5F5"/>
<path d="M5.58667 7.20742L5.70725 7.55831L6.08839 7.56118C6.13772 7.56156 6.15822 7.62265 6.11854 7.65113L5.81187 7.87086L5.92683 8.22352C5.9417 8.26918 5.88817 8.30692 5.84798 8.2791L5.53785 8.06405L5.22772 8.2791C5.18759 8.30692 5.134 8.26918 5.14887 8.22352L5.26383 7.87086L4.95722 7.65113C4.91754 7.62271 4.93798 7.56156 4.98731 7.56118L5.36845 7.55831L5.48903 7.20742C5.50481 7.16198 5.57106 7.16198 5.58667 7.20742Z" fill="#F5F5F5"/>
<path d="M5.58667 10.1901L5.70725 10.541L6.08839 10.5438C6.13772 10.5442 6.15822 10.6053 6.11854 10.6338L5.81187 10.8535L5.92683 11.2062C5.9417 11.2518 5.88817 11.2896 5.84798 11.2618L5.53785 11.0467L5.22772 11.2618C5.18759 11.2896 5.134 11.2518 5.14887 11.2062L5.26383 10.8535L4.95722 10.6338C4.91754 10.6054 4.93798 10.5442 4.98731 10.5438L5.36845 10.541L5.48903 10.1901C5.50481 10.1446 5.57106 10.1446 5.58667 10.1901Z" fill="#F5F5F5"/>
<path d="M5.58667 12.9042L5.70725 13.2551L6.08839 13.258C6.13772 13.2583 6.15822 13.3194 6.11854 13.3479L5.81187 13.5676L5.92683 13.9203C5.9417 13.966 5.88817 14.0037 5.84798 13.9759L5.53785 13.7608L5.22772 13.9759C5.18759 14.0037 5.134 13.966 5.14887 13.9203L5.26383 13.5676L4.95722 13.3479C4.91754 13.3195 4.93798 13.2583 4.98731 13.258L5.36845 13.2551L5.48903 12.9042C5.50481 12.8588 5.57106 12.8588 5.58667 12.9042Z" fill="#F5F5F5"/>
<path d="M7.05493 2.42007L7.1755 2.77096L7.55665 2.77382C7.60598 2.77421 7.62647 2.8353 7.58673 2.86372L7.28013 3.08346L7.39508 3.43611C7.40996 3.48177 7.35642 3.51956 7.31623 3.49169L7.0061 3.27658L6.69598 3.49169C6.65584 3.51956 6.60225 3.48177 6.61713 3.43611L6.73208 3.08346L6.42542 2.86372C6.38574 2.8353 6.40617 2.77415 6.45556 2.77382L6.83671 2.77096L6.95728 2.42007C6.97312 2.37463 7.03931 2.37463 7.05493 2.42007Z" fill="#F5F5F5"/>
<path d="M7.05493 5.66641L7.1755 6.0173L7.55665 6.02016C7.60598 6.02055 7.62647 6.08164 7.58673 6.11012L7.28013 6.32985L7.39508 6.6825C7.40996 6.72817 7.35642 6.76595 7.31623 6.73808L7.0061 6.52298L6.69598 6.73808C6.65584 6.76595 6.60225 6.72817 6.61713 6.6825L6.73208 6.32985L6.42542 6.11012C6.38574 6.08169 6.40617 6.02055 6.45556 6.02016L6.83671 6.0173L6.95728 5.66641C6.97312 5.62096 7.03931 5.62096 7.05493 5.66641Z" fill="#F5F5F5"/>
<path d="M7.05493 8.7506L7.1755 9.10148L7.55665 9.10435C7.60598 9.10473 7.62647 9.16582 7.58673 9.1943L7.28013 9.41404L7.39508 9.76669C7.40996 9.81235 7.35642 9.85009 7.31623 9.82227L7.0061 9.60716L6.69598 9.82227C6.65584 9.85014 6.60225 9.81235 6.61713 9.76669L6.73208 9.41404L6.42542 9.1943C6.38574 9.16588 6.40617 9.10473 6.45556 9.10435L6.83671 9.10148L6.95728 8.7506C6.97312 8.70521 7.03931 8.70521 7.05493 8.7506Z" fill="#F5F5F5"/>
<path d="M7.05493 11.5204L7.1755 11.8713L7.55665 11.8742C7.60598 11.8746 7.62647 11.9356 7.58673 11.9641L7.28013 12.1839L7.39508 12.5365C7.40996 12.5822 7.35642 12.62 7.31623 12.5921L7.0061 12.377L6.69598 12.5921C6.65584 12.62 6.60225 12.5822 6.61713 12.5365L6.73208 12.1839L6.42542 11.9641C6.38574 11.9357 6.40617 11.8746 6.45556 11.8742L6.83671 11.8713L6.95728 11.5204C6.97312 11.475 7.03931 11.475 7.05493 11.5204Z" fill="#F5F5F5"/>
<path d="M8.52313 1.03404L8.64371 1.38493L9.02485 1.3878C9.07418 1.38818 9.09468 1.44927 9.05494 1.47769L8.74833 1.69743L8.86329 2.05008C8.87816 2.09575 8.82463 2.13348 8.78444 2.10566L8.47431 1.89056L8.16418 2.10566C8.12405 2.13353 8.07046 2.09575 8.08533 2.05008L8.20029 1.69743L7.89368 1.47769C7.854 1.44927 7.87444 1.38813 7.92382 1.3878L8.30497 1.38493L8.42555 1.03404C8.44133 0.988653 8.50752 0.988653 8.52313 1.03404Z" fill="#F5F5F5"/>
<path d="M8.52313 3.96109L8.64371 4.31198L9.02486 4.31485C9.07419 4.31523 9.09468 4.37632 9.05494 4.4048L8.74834 4.62453L8.86335 4.97713C8.87822 5.0228 8.82469 5.06053 8.7845 5.03271L8.47437 4.81761L8.16424 5.03271C8.12411 5.06058 8.07052 5.0228 8.08539 4.97713L8.20035 4.62448L7.89374 4.40475C7.85406 4.37632 7.8745 4.31518 7.92389 4.31479L8.30503 4.31193L8.42561 3.96104C8.44133 3.91565 8.50752 3.91565 8.52313 3.96109Z" fill="#F5F5F5"/>
<path d="M8.52313 7.20742L8.64371 7.55831L9.02485 7.56118C9.07418 7.56156 9.09468 7.62265 9.05494 7.65113L8.74833 7.87086L8.86329 8.22352C8.87816 8.26918 8.82463 8.30692 8.78444 8.2791L8.47431 8.06405L8.16418 8.2791C8.12405 8.30692 8.07046 8.26918 8.08533 8.22352L8.20029 7.87086L7.89368 7.65113C7.854 7.62271 7.87444 7.56156 7.92382 7.56118L8.30497 7.55831L8.42555 7.20742C8.44133 7.16198 8.50752 7.16198 8.52313 7.20742Z" fill="#F5F5F5"/>
<path d="M8.52313 10.1901L8.64371 10.541L9.02485 10.5438C9.07418 10.5442 9.09468 10.6053 9.05494 10.6338L8.74833 10.8535L8.86329 11.2062C8.87816 11.2518 8.82463 11.2896 8.78444 11.2618L8.47431 11.0467L8.16418 11.2618C8.12405 11.2896 8.07046 11.2518 8.08533 11.2062L8.20029 10.8535L7.89368 10.6338C7.854 10.6054 7.87444 10.5442 7.92382 10.5438L8.30497 10.541L8.42555 10.1901C8.44133 10.1446 8.50752 10.1446 8.52313 10.1901Z" fill="#F5F5F5"/>
<path d="M8.52313 12.9042L8.64371 13.2551L9.02485 13.258C9.07418 13.2583 9.09468 13.3194 9.05494 13.3479L8.74833 13.5676L8.86329 13.9203C8.87816 13.966 8.82463 14.0037 8.78444 13.9759L8.47431 13.7608L8.16418 13.9759C8.12405 14.0037 8.07046 13.966 8.08533 13.9203L8.20029 13.5676L7.89368 13.3479C7.854 13.3195 7.87444 13.2583 7.92382 13.258L8.30497 13.2551L8.42555 12.9042C8.44133 12.8588 8.50752 12.8588 8.52313 12.9042Z" fill="#F5F5F5"/>
<path d="M9.99133 2.42007L10.1119 2.77096L10.4931 2.77382C10.5424 2.77421 10.5629 2.8353 10.5231 2.86372L10.2165 3.08346L10.3314 3.43611C10.3463 3.48177 10.2927 3.51956 10.2526 3.49169L9.94245 3.27658L9.63233 3.49169C9.59219 3.51956 9.5386 3.48177 9.55347 3.43611L9.66843 3.08346L9.36182 2.86372C9.32214 2.8353 9.34258 2.77415 9.39191 2.77382L9.77305 2.77096L9.89363 2.42007C9.90953 2.37463 9.97572 2.37463 9.99133 2.42007Z" fill="#F5F5F5"/>
<path d="M9.99133 5.66641L10.1119 6.0173L10.4931 6.02016C10.5424 6.02055 10.5629 6.08164 10.5231 6.11012L10.2165 6.32985L10.3314 6.6825C10.3463 6.72817 10.2927 6.76595 10.2526 6.73808L9.94245 6.52298L9.63233 6.73808C9.59219 6.76595 9.5386 6.72817 9.55347 6.6825L9.66843 6.32985L9.36182 6.11012C9.32214 6.08169 9.34258 6.02055 9.39191 6.02016L9.77305 6.0173L9.89363 5.66641C9.90953 5.62096 9.97572 5.62096 9.99133 5.66641Z" fill="#F5F5F5"/>
<path d="M9.99133 8.7506L10.1119 9.10148L10.4931 9.10435C10.5424 9.10473 10.5629 9.16582 10.5231 9.1943L10.2165 9.41404L10.3314 9.76669C10.3463 9.81235 10.2927 9.85009 10.2526 9.82227L9.94245 9.60716L9.63233 9.82227C9.59219 9.85014 9.5386 9.81235 9.55347 9.76669L9.66843 9.41404L9.36182 9.1943C9.32214 9.16588 9.34258 9.10473 9.39191 9.10435L9.77305 9.10148L9.89363 8.7506C9.90953 8.70521 9.97572 8.70521 9.99133 8.7506Z" fill="#F5F5F5"/>
<path d="M9.99133 11.5204L10.1119 11.8713L10.4931 11.8742C10.5424 11.8746 10.5629 11.9356 10.5231 11.9641L10.2165 12.1839L10.3314 12.5365C10.3463 12.5822 10.2927 12.62 10.2526 12.5921L9.94245 12.377L9.63233 12.5921C9.59219 12.62 9.5386 12.5822 9.55347 12.5365L9.66843 12.1839L9.36182 11.9641C9.32214 11.9357 9.34258 11.8746 9.39191 11.8742L9.77305 11.8713L9.89363 11.5204C9.90953 11.475 9.97572 11.475 9.99133 11.5204Z" fill="#F5F5F5"/>
<path d="M11.4595 1.03404L11.5801 1.38493L11.9612 1.3878C12.0106 1.38818 12.0311 1.44927 11.9913 1.47769L11.6847 1.69743L11.7996 2.05008C11.8145 2.09575 11.7609 2.13348 11.7208 2.10566L11.4106 1.89056L11.1005 2.10566C11.0604 2.13353 11.0068 2.09575 11.0217 2.05008L11.1366 1.69743L10.83 1.47769C10.7903 1.44927 10.8107 1.38813 10.8601 1.3878L11.2412 1.38493L11.3618 1.03404C11.3777 0.988653 11.4439 0.988653 11.4595 1.03404Z" fill="#F5F5F5"/>
<path d="M11.4595 3.96109L11.5801 4.31198L11.9612 4.31484C12.0106 4.31523 12.0311 4.37631 11.9913 4.40479L11.6847 4.62453L11.7996 4.97718C11.8145 5.02284 11.7609 5.06058 11.7208 5.03276L11.4106 4.81765L11.1005 5.03276C11.0604 5.06063 11.0068 5.02284 11.0217 4.97718L11.1366 4.62453L10.83 4.40479C10.7903 4.37637 10.8107 4.31523 10.8601 4.31484L11.2412 4.31198L11.3618 3.96109C11.3777 3.91564 11.4439 3.91564 11.4595 3.96109Z" fill="#F5F5F5"/>
<path d="M11.4595 7.20742L11.5801 7.55831L11.9612 7.56118C12.0106 7.56156 12.0311 7.62265 11.9913 7.65113L11.6847 7.87086L11.7996 8.22352C11.8145 8.26918 11.7609 8.30692 11.7208 8.2791L11.4106 8.06405L11.1005 8.2791C11.0604 8.30692 11.0068 8.26918 11.0217 8.22352L11.1366 7.87086L10.83 7.65113C10.7903 7.62271 10.8107 7.56156 10.8601 7.56118L11.2412 7.55831L11.3618 7.20742C11.3777 7.16198 11.4439 7.16198 11.4595 7.20742Z" fill="#F5F5F5"/>
<path d="M11.4595 10.1901L11.5801 10.541L11.9612 10.5438C12.0106 10.5442 12.0311 10.6053 11.9913 10.6338L11.6847 10.8535L11.7996 11.2062C11.8145 11.2518 11.7609 11.2896 11.7208 11.2618L11.4106 11.0467L11.1005 11.2618C11.0604 11.2896 11.0068 11.2518 11.0217 11.2062L11.1366 10.8535L10.83 10.6338C10.7903 10.6054 10.8107 10.5442 10.8601 10.5438L11.2412 10.541L11.3618 10.1901C11.3777 10.1446 11.4439 10.1446 11.4595 10.1901Z" fill="#F5F5F5"/>
<path d="M11.4595 12.9042L11.5801 13.2551L11.9612 13.258C12.0106 13.2583 12.0311 13.3194 11.9913 13.3479L11.6847 13.5676L11.7996 13.9203C11.8145 13.966 11.7609 14.0037 11.7208 13.9759L11.4106 13.7608L11.1005 13.9759C11.0604 14.0037 11.0068 13.966 11.0217 13.9203L11.1366 13.5676L10.83 13.3479C10.7903 13.3195 10.8107 13.2583 10.8601 13.258L11.2412 13.2551L11.3618 12.9042C11.3777 12.8588 11.4439 12.8588 11.4595 12.9042Z" fill="#F5F5F5"/>
<path d="M12.9277 2.42007L13.0483 2.77096L13.4295 2.77382C13.4788 2.77421 13.4993 2.8353 13.4596 2.86372L13.1529 3.08346L13.2679 3.43611C13.2828 3.48177 13.2292 3.51956 13.189 3.49169L12.8789 3.27658L12.5688 3.49169C12.5286 3.51956 12.4751 3.48177 12.4899 3.43611L12.6049 3.08346L12.2982 2.86372C12.2585 2.8353 12.279 2.77415 12.3283 2.77382L12.7095 2.77096L12.8301 2.42007C12.8459 2.37463 12.9121 2.37463 12.9277 2.42007Z" fill="#F5F5F5"/>
<path d="M12.9277 5.66641L13.0483 6.0173L13.4295 6.02016C13.4788 6.02055 13.4993 6.08164 13.4596 6.11012L13.1529 6.32985L13.2679 6.6825C13.2828 6.72817 13.2292 6.76595 13.189 6.73808L12.8789 6.52298L12.5688 6.73808C12.5286 6.76595 12.4751 6.72817 12.4899 6.6825L12.6049 6.32985L12.2982 6.11012C12.2585 6.08169 12.279 6.02055 12.3283 6.02016L12.7095 6.0173L12.8301 5.66641C12.8459 5.62096 12.9121 5.62096 12.9277 5.66641Z" fill="#F5F5F5"/>
<path d="M12.9277 8.7506L13.0483 9.10148L13.4295 9.10435C13.4788 9.10473 13.4993 9.16582 13.4596 9.1943L13.1529 9.41404L13.2679 9.76669C13.2828 9.81235 13.2292 9.85009 13.189 9.82227L12.8789 9.60716L12.5688 9.82227C12.5286 9.85014 12.4751 9.81235 12.4899 9.76669L12.6049 9.41404L12.2982 9.1943C12.2585 9.16588 12.279 9.10473 12.3283 9.10435L12.7095 9.10148L12.8301 8.7506C12.8459 8.70521 12.9121 8.70521 12.9277 8.7506Z" fill="#F5F5F5"/>
<path d="M12.9277 11.5204L13.0483 11.8713L13.4295 11.8742C13.4788 11.8746 13.4993 11.9356 13.4596 11.9641L13.1529 12.1839L13.2679 12.5365C13.2828 12.5822 13.2292 12.62 13.189 12.5921L12.8789 12.377L12.5688 12.5921C12.5286 12.62 12.4751 12.5822 12.4899 12.5365L12.6049 12.1839L12.2982 11.9641C12.2585 11.9357 12.279 11.8746 12.3283 11.8742L12.7095 11.8713L12.8301 11.5204C12.8459 11.475 12.9121 11.475 12.9277 11.5204Z" fill="#F5F5F5"/>
<path d="M14.3959 1.03404L14.5165 1.38493L14.8977 1.3878C14.947 1.38818 14.9675 1.44927 14.9278 1.47769L14.6211 1.69743L14.7361 2.05008C14.751 2.09575 14.6974 2.13348 14.6572 2.10566L14.3471 1.89056L14.037 2.10566C13.9968 2.13353 13.9433 2.09575 13.9581 2.05008L14.0731 1.69743L13.7664 1.47769C13.7267 1.44927 13.7472 1.38813 13.7965 1.3878L14.1777 1.38493L14.2982 1.03404C14.3141 0.988653 14.3803 0.988653 14.3959 1.03404Z" fill="#F5F5F5"/>
<path d="M14.3959 3.96109L14.5165 4.31198L14.8977 4.31484C14.947 4.31523 14.9675 4.37631 14.9278 4.40479L14.6211 4.62453L14.7361 4.97718C14.751 5.02284 14.6974 5.06058 14.6572 5.03276L14.3471 4.81765L14.037 5.03276C13.9968 5.06063 13.9433 5.02284 13.9581 4.97718L14.0731 4.62453L13.7664 4.40479C13.7267 4.37637 13.7472 4.31523 13.7965 4.31484L14.1777 4.31198L14.2982 3.96109C14.3141 3.91564 14.3803 3.91564 14.3959 3.96109Z" fill="#F5F5F5"/>
<path d="M14.3959 7.20742L14.5165 7.55831L14.8977 7.56118C14.947 7.56156 14.9675 7.62265 14.9278 7.65113L14.6211 7.87086L14.7361 8.22352C14.751 8.26918 14.6974 8.30692 14.6572 8.2791L14.3471 8.06405L14.037 8.2791C13.9968 8.30692 13.9433 8.26918 13.9581 8.22352L14.0731 7.87086L13.7664 7.65113C13.7267 7.62271 13.7472 7.56156 13.7965 7.56118L14.1777 7.55831L14.2982 7.20742C14.3141 7.16198 14.3803 7.16198 14.3959 7.20742Z" fill="#F5F5F5"/>
<path d="M14.3959 10.1901L14.5165 10.541L14.8977 10.5438C14.947 10.5442 14.9675 10.6053 14.9278 10.6338L14.6211 10.8535L14.7361 11.2062C14.751 11.2518 14.6974 11.2896 14.6572 11.2618L14.3471 11.0467L14.037 11.2618C13.9968 11.2896 13.9433 11.2518 13.9581 11.2062L14.0731 10.8535L13.7664 10.6338C13.7267 10.6054 13.7472 10.5442 13.7965 10.5438L14.1777 10.541L14.2982 10.1901C14.3141 10.1446 14.3803 10.1446 14.3959 10.1901Z" fill="#F5F5F5"/>
<path d="M14.3959 12.9042L14.5165 13.2551L14.8977 13.258C14.947 13.2583 14.9675 13.3194 14.9278 13.3479L14.6211 13.5676L14.7361 13.9203C14.751 13.966 14.6974 14.0037 14.6572 13.9759L14.3471 13.7608L14.037 13.9759C13.9968 14.0037 13.9433 13.966 13.9581 13.9203L14.0731 13.5676L13.7664 13.3479C13.7267 13.3195 13.7472 13.2583 13.7965 13.258L14.1777 13.2551L14.2982 12.9042C14.3141 12.8588 14.3803 12.8588 14.3959 12.9042Z" fill="#F5F5F5"/>
</svg>
