<svg width="29" height="29" viewBox="0 0 29 29" fill="none" xmlns="http://www.w3.org/2000/svg">
<path d="M22.6562 0H6.34375C2.84019 0 0 2.84019 0 6.34375V9.66669H29V6.34375C29 2.84019 26.1598 0 22.6562 0Z" fill="#82AFFF"/>
<path d="M0 22.6562C0 26.1597 2.84019 28.9999 6.34375 28.9999H22.6562C26.1598 28.9999 29 26.1597 29 22.6562V19.3333H0V22.6562Z" fill="#82AFFF"/>
<rect y="9.66675" width="29" height="9.66686" fill="#F5F5F5"/>
<path d="M18.4084 14.2752H15.5939C15.6464 14.2351 15.6879 14.1958 15.7256 14.1586C15.7943 14.0911 15.8489 14.0374 15.9939 13.9775C16.1397 13.9161 16.216 13.9154 16.3126 13.9139C16.429 13.9131 16.5607 13.9108 16.776 13.8218C16.9909 13.7321 17.0848 13.64 17.1676 13.5587C17.2363 13.4912 17.2909 13.4375 17.4363 13.3769C17.5809 13.3163 17.6569 13.3155 17.7531 13.3147C17.8691 13.3132 18.0008 13.3117 18.2161 13.2219L18.0657 12.8598C17.921 12.9204 17.8451 12.9212 17.7489 12.9219C17.6329 12.9235 17.5012 12.925 17.2863 13.014C17.0714 13.1037 16.9776 13.1958 16.8947 13.2771C16.826 13.3446 16.7714 13.3983 16.6264 13.4581C16.4806 13.5195 16.4042 13.5203 16.3077 13.5218C16.1913 13.5226 16.0596 13.5249 15.8443 13.6146C15.6294 13.7036 15.5355 13.7965 15.4527 13.8778C15.3851 13.9439 15.3292 13.9969 15.19 14.056L17.4019 11.8333L17.1256 11.5556L15.1345 13.5563C15.1433 13.4909 15.1457 13.4327 15.1462 13.3799C15.1473 13.2825 15.1481 13.2065 15.2084 13.06C15.2687 12.9135 15.3221 12.859 15.3893 12.79C15.471 12.7064 15.563 12.6112 15.6523 12.3949C15.7412 12.1785 15.7427 12.0466 15.7439 11.93C15.745 11.8333 15.7458 11.7566 15.8057 11.6109C15.866 11.4651 15.9191 11.4106 15.9862 11.3416C16.0675 11.258 16.1595 11.1636 16.2484 10.9481L15.8873 10.7977C15.827 10.9435 15.774 10.9979 15.7068 11.0669C15.6255 11.1505 15.5336 11.2449 15.4446 11.4605C15.3557 11.6769 15.3542 11.8088 15.353 11.9254C15.3519 12.0221 15.3511 12.0988 15.2912 12.2446C15.2309 12.3911 15.1775 12.4456 15.1103 12.5146C15.0286 12.5982 14.9366 12.6934 14.8473 12.9097C14.7584 13.1261 14.7568 13.2588 14.7553 13.3753C14.7546 13.4699 14.7519 13.5464 14.6954 13.6869V10.5437H14.3046V13.3721C14.2647 13.3197 14.2257 13.2781 14.1889 13.2403C14.1213 13.1713 14.0683 13.116 14.008 12.9702C13.9477 12.8237 13.9465 12.747 13.9454 12.6495C13.9443 12.5329 13.9427 12.4002 13.8534 12.1838C13.7645 11.9683 13.6725 11.8739 13.5912 11.7903C13.5241 11.7213 13.471 11.6668 13.4107 11.521C13.3508 11.3753 13.35 11.2986 13.3489 11.2019C13.3477 11.0853 13.3462 10.9534 13.2573 10.7378L12.8962 10.8882C12.9561 11.034 12.9569 11.1099 12.9581 11.2066C12.9592 11.3232 12.9607 11.4551 13.0496 11.6715C13.1386 11.887 13.2305 11.9814 13.3118 12.065C13.379 12.1341 13.4321 12.1885 13.4923 12.3343C13.5527 12.4808 13.5538 12.5575 13.5549 12.655C13.5561 12.7716 13.5576 12.9043 13.6469 13.1206C13.7358 13.337 13.8278 13.4314 13.9091 13.515C13.9753 13.5826 14.0277 13.6391 14.0865 13.7785L11.8743 11.5556L11.598 11.8333L13.8067 14.0528C13.6855 13.9974 13.6271 13.9467 13.5636 13.8847C13.48 13.8026 13.3857 13.7098 13.1697 13.62C12.9544 13.531 12.8228 13.5287 12.7063 13.5272C12.6094 13.5264 12.5331 13.5249 12.3861 13.4635C12.2392 13.4029 12.1842 13.3492 12.1143 13.2809C12.0307 13.1996 11.9361 13.1067 11.7197 13.0162C11.5036 12.9265 11.3716 12.9249 11.2548 12.9234C11.1575 12.9219 11.0808 12.9203 10.9338 12.8589L10.7842 13.2226C11.0002 13.3124 11.1323 13.3139 11.2491 13.3154C11.3464 13.3169 11.4231 13.3185 11.5701 13.3799C11.7174 13.4405 11.7723 13.4942 11.8422 13.5625C11.9258 13.6445 12.0205 13.7366 12.2365 13.8264C12.4525 13.9169 12.5846 13.9184 12.701 13.9199C12.798 13.9215 12.8743 13.9223 13.0205 13.9836C13.1667 14.0442 13.2212 14.0979 13.2903 14.1654C13.3258 14.2004 13.3654 14.2374 13.4135 14.2751H10.5915V14.6679H13.7132C13.5899 14.7151 13.5127 14.721 13.4243 14.7224C13.3079 14.7232 13.1762 14.7255 12.9606 14.8145C12.745 14.9042 12.6503 14.9971 12.5667 15.0783C12.4973 15.1467 12.4427 15.2004 12.2965 15.261C12.1496 15.3224 12.0728 15.3239 11.9755 15.3254C11.8587 15.3269 11.7267 15.3285 11.5107 15.4183C11.2942 15.5088 11.1996 15.6009 11.116 15.6829C11.0461 15.7512 10.9912 15.8049 10.8442 15.8655L10.9938 16.2292C11.2098 16.1387 11.3045 16.0466 11.3881 15.9645C11.4579 15.8962 11.5129 15.8425 11.6602 15.7819C11.8072 15.7205 11.8839 15.719 11.9812 15.7174C12.098 15.7159 12.23 15.7144 12.4465 15.6239C12.6618 15.5341 12.756 15.442 12.8396 15.36C12.9087 15.2925 12.9637 15.2388 13.1102 15.1782C13.256 15.1168 13.3328 15.116 13.4293 15.1145C13.4787 15.1141 13.5344 15.1109 13.5947 15.1035L11.598 17.1099L11.8743 17.3876L14.082 15.1693C14.0277 15.2904 13.9774 15.349 13.9156 15.4129C13.8343 15.4965 13.7423 15.5916 13.653 15.8079C13.5637 16.0243 13.5618 16.1578 13.5606 16.2744C13.5591 16.3718 13.5583 16.4485 13.4976 16.5958C13.4369 16.7439 13.3831 16.7991 13.3156 16.8689C13.2339 16.9525 13.1419 17.0484 13.0522 17.2656C12.9625 17.4827 12.961 17.6154 12.9595 17.7328C12.9579 17.8302 12.9568 17.9077 12.8961 18.055L13.2572 18.2054C13.3468 17.9883 13.3484 17.8556 13.3499 17.7382C13.3514 17.6408 13.3526 17.5633 13.4133 17.416C13.4739 17.2679 13.5278 17.2127 13.5953 17.1428C13.677 17.0592 13.769 16.9633 13.8587 16.7462C13.948 16.5298 13.9499 16.3964 13.9511 16.2798C13.9526 16.1823 13.9533 16.1056 14.0141 15.9583C14.0744 15.8111 14.1278 15.7566 14.1954 15.6867C14.2301 15.651 14.267 15.6111 14.3045 15.5626V18.3994H14.6953V15.2624C14.7419 15.3862 14.7478 15.4635 14.7491 15.5526C14.7503 15.6692 14.7522 15.8019 14.8415 16.0182C14.9304 16.2353 15.0228 16.3305 15.1041 16.4141C15.1717 16.4839 15.2251 16.5392 15.2858 16.6864C15.3464 16.8338 15.3476 16.9112 15.3491 17.0087C15.3507 17.126 15.3522 17.2588 15.4419 17.4759C15.5316 17.693 15.6236 17.7889 15.7053 17.8725C15.7729 17.9424 15.8267 17.9976 15.8873 18.1457L16.2484 17.9953C16.1587 17.7782 16.0667 17.6823 15.985 17.5986C15.9175 17.5288 15.8637 17.4736 15.803 17.3255C15.7423 17.1782 15.7411 17.1008 15.7396 17.0033C15.7381 16.8859 15.7366 16.7532 15.6469 16.5361C15.5576 16.3189 15.4656 16.2238 15.3843 16.1402C15.3167 16.0704 15.2633 16.0151 15.2026 15.8679C15.1419 15.7213 15.1411 15.6446 15.1396 15.5472C15.1392 15.4975 15.1359 15.4415 15.1285 15.3809L17.1255 17.3876L17.4018 17.1099L15.4111 15.1095C15.4757 15.1182 15.5336 15.1207 15.5858 15.1214C15.6824 15.1222 15.7584 15.1229 15.9042 15.1835C16.0499 15.2449 16.1046 15.2978 16.1736 15.3661C16.2568 15.4475 16.3511 15.5403 16.5663 15.63C16.7812 15.719 16.9129 15.7205 17.0289 15.7213C17.1251 15.7229 17.2011 15.7237 17.3461 15.7843C17.4912 15.8441 17.5453 15.8978 17.614 15.9653C17.6972 16.0467 17.7911 16.1395 18.006 16.2292L18.1556 15.8656C18.0106 15.8058 17.9564 15.7521 17.8877 15.6846C17.8045 15.6032 17.7106 15.5104 17.4958 15.4207C17.2809 15.3317 17.1492 15.3302 17.0332 15.3294C16.937 15.3279 16.861 15.3271 16.716 15.2665C16.5702 15.2058 16.5156 15.1529 16.4465 15.0846C16.3633 15.0033 16.2691 14.9105 16.0538 14.8215C15.8385 14.731 15.7069 14.7294 15.5905 14.7287C15.4957 14.7271 15.419 14.7253 15.2784 14.668H18.4084V14.2752Z" fill="#F09146"/>
<ellipse cx="14.5" cy="14.4718" rx="1.95416" ry="1.96396" fill="#FFE15A"/>
</svg>
