<svg width="16" height="12" viewBox="0 0 16 12" fill="none" xmlns="http://www.w3.org/2000/svg">
<path fill-rule="evenodd" clip-rule="evenodd" d="M11.3978 1.79984V2.40036H11.9966V11.9983H2.99915V2.40036H4.19846V1.79984C4.19846 0.927768 4.83031 0 5.99829 0H9.59796C10.47 0 11.3978 0.630116 11.3978 1.79984ZM12.5971 2.40036H14.9957C15.3265 2.40036 15.5963 2.6719 15.5963 3.00089V11.3978C15.5963 11.7285 15.3247 11.9983 14.9957 11.9983H12.5971V2.40036ZM10.1967 2.40036H5.39777V1.79984C5.39777 1.79984 5.39777 1.19931 5.99829 1.19931H9.59796C9.59796 1.19931 10.1985 1.19931 10.1985 1.79984V2.40036H10.1967ZM0.600525 2.40036H2.39862H2.40036V12.0001H0.600525C0.269801 12.0001 0 11.7285 0 11.3995V3.00089C0 2.67016 0.269801 2.40036 0.600525 2.40036Z" fill="#606266"/>
</svg>
