<svg width="14" height="14" viewBox="0 0 14 14" fill="none" xmlns="http://www.w3.org/2000/svg">
<path fill-rule="evenodd" clip-rule="evenodd" d="M13.7432 12.5742L9.91018 8.73963C10.5973 7.80253 10.9653 6.66959 10.9602 5.5076C10.9471 2.47443 8.49379 0.0175746 5.46064 5.57183e-05C4.00911 -0.00651163 2.61524 0.567717 1.58954 1.59482C0.56385 2.62192 -0.008465 4.01658 9.46511e-05 5.4681C0.0132045 8.50155 2.46672 10.9586 5.50014 10.9762C6.66686 10.9812 7.80394 10.6088 8.74167 9.91464L8.74567 9.91164L12.5752 13.7432C12.7823 13.9604 13.0908 14.0483 13.3812 13.9729C13.6717 13.8974 13.8984 13.6705 13.9736 13.38C14.0488 13.0895 13.9606 12.781 13.7432 12.5742ZM5.49614 9.87814C3.06954 9.86418 1.10676 7.89873 1.0961 5.4721C1.08955 4.31104 1.54744 3.19553 2.36785 2.37391C3.18825 1.55229 4.30307 1.09274 5.46414 1.09757C7.89075 1.11152 9.85353 3.07698 9.86418 5.5036C9.87073 6.66467 9.41284 7.78017 8.59244 8.60179C7.77204 9.42342 6.65722 9.88296 5.49614 9.87814Z" fill="black" fill-opacity="0.36"/>
</svg>
