<svg width="15" height="14" viewBox="0 0 15 14" fill="none" xmlns="http://www.w3.org/2000/svg">
<path fill-rule="evenodd" clip-rule="evenodd" d="M3.375 6.375C3.375 6.6 3.225 6.75 3 6.75C2.775 6.75 2.625 6.6 2.625 6.375V1.5C2.625 0.675 3.3 0 4.125 0H10.875C11.7 0 12.375 0.675 12.375 1.5V6.375C12.375 6.6 12.225 6.75 12 6.75C11.775 6.75 11.625 6.6 11.625 6.375V1.5C11.625 1.0875 11.2875 0.75 10.875 0.75H4.125C3.7125 0.75 3.375 1.0875 3.375 1.5V6.375ZM12.75 3.45H13.875C14.5125 3.45 15 3.9375 15 4.575V12.825C15 13.4625 14.5125 13.95 13.875 13.95H1.125C0.4875 13.95 0 13.4625 0 12.825V4.575C0 3.9375 0.4875 3.45 1.125 3.45H2.25V6.45C2.2875 6.75 2.475 6.975 2.7375 7.0875C2.775 7.0875 2.82187 7.09687 2.86875 7.10625C2.91562 7.11562 2.9625 7.125 3 7.125C3.075 7.125 3.1875 7.125 3.2625 7.0875C3.525 6.975 3.7125 6.75 3.75 6.45V3.45H11.25V6.45C11.2875 6.75 11.475 6.975 11.7375 7.0875C11.775 7.0875 11.8219 7.09687 11.8687 7.10625C11.9156 7.11562 11.9625 7.125 12 7.125C12.075 7.125 12.1875 7.125 12.2625 7.0875C12.525 6.975 12.7125 6.75 12.75 6.45V3.45Z" fill="#C0C4CC"/>
</svg>
