<svg width="72" height="72" viewBox="0 0 72 72" fill="none" xmlns="http://www.w3.org/2000/svg">
<path fill-rule="evenodd" clip-rule="evenodd" d="M36 0C16.1175 0 0 16.1175 0 36C0 55.8825 16.1175 72 36 72C44.256 72 52.089 69.2115 58.413 64.173C59.172 63.5685 59.2965 62.463 58.692 61.7054C58.0875 60.9464 56.9835 60.822 56.2245 61.4265C50.5169 65.973 43.452 68.4869 35.9985 68.4869C18.0555 68.4869 3.51 53.9414 3.51 35.9984C3.51 18.0554 18.0555 3.51 35.9985 3.51C53.9415 3.51 68.487 18.0555 68.487 35.9985C68.487 42.15 66.7755 48.045 63.5955 53.1525C63.0825 53.9745 63.3329 55.059 64.1565 55.5705C64.98 56.0835 66.0629 55.8331 66.576 55.0095C70.1025 49.35 72 42.8115 72 35.9985C72 16.1176 55.8825 0 36 0Z" fill="#00E676"/>
<path fill-rule="evenodd" clip-rule="evenodd" d="M56.172 25.8076L35.091 47.5651C34.428 48.2491 33.342 48.2805 32.6415 47.6356L19.884 35.9086C19.17 35.253 19.1234 34.1416 19.779 33.4276C20.436 32.7136 21.546 32.6671 22.26 33.3226L33.759 43.8916L53.6505 23.3626C54.324 22.6665 55.437 22.6486 56.133 23.3235C56.8305 23.9986 56.847 25.1116 56.172 25.8076Z" fill="#00E676"/>
</svg>
