<svg width="17" height="14" viewBox="0 0 17 14" fill="none" xmlns="http://www.w3.org/2000/svg">
<path fill-rule="evenodd" clip-rule="evenodd" d="M12.6857 13.0005C12.6857 13.5522 12.2132 14 11.6275 14H1.05821C0.472508 14 0 13.5522 0 13.0005C0 11.0015 2.04355 9.13337 4.13166 8.39701C2.9249 7.69249 2.11358 6.43976 2.11358 5.00171V4.0015C2.11358 1.79243 4.0093 0 6.34357 0C8.67784 0 10.5735 1.79243 10.5735 4.0015V5.001C10.5735 6.44047 9.76149 7.69178 8.55544 8.39701C10.6429 9.13407 12.6857 11.0015 12.6857 13.0005H12.6857Z" fill="#C0C4CC"/>
<path fill-rule="evenodd" clip-rule="evenodd" d="M14.0629 12.9446H16.1673C16.6151 12.9446 16.9765 12.6022 16.9765 12.1807C16.9765 10.6514 15.4133 9.22392 13.8175 8.66086C14.7399 8.12185 15.3609 7.16411 15.3609 6.06345V5.2981C15.3609 3.60893 13.9115 2.23808 12.1262 2.23808C11.9041 2.23808 11.6876 2.2593 11.4775 2.29962C11.7343 2.81599 11.8779 3.39248 11.8779 4.0008V5.0003C11.8779 6.43977 11.4726 7.53263 10.4101 8.39631C12.3787 8.87943 14.0325 10.9626 14.0629 12.9446V12.9446Z" fill="#C0C4CC"/>
</svg>
