<svg width="49" height="49" viewBox="0 0 49 49" fill="none" xmlns="http://www.w3.org/2000/svg">
<path fill-rule="evenodd" clip-rule="evenodd" d="M13.6111 10.8889C13.6111 8.00098 14.7583 5.23134 16.8004 3.18928C18.8425 1.14722 21.6121 0 24.5 0C27.3879 0 30.1575 1.14722 32.1996 3.18928C34.2417 5.23134 35.3889 8.00098 35.3889 10.8889C35.3889 13.7768 34.2417 16.5464 32.1996 18.5885C30.1575 20.6306 27.3879 21.7778 24.5 21.7778C21.6121 21.7778 18.8425 20.6306 16.8004 18.5885C14.7583 16.5464 13.6111 13.7768 13.6111 10.8889ZM13.6111 27.2222C10.0012 27.2222 6.53918 28.6562 3.9866 31.2088C1.43402 33.7614 0 37.2234 0 40.8333C0 42.9993 0.860414 45.0765 2.39196 46.608C3.92351 48.1396 6.00073 49 8.16667 49H40.8333C42.9993 49 45.0765 48.1396 46.608 46.608C48.1396 45.0765 49 42.9993 49 40.8333C49 37.2234 47.566 33.7614 45.0134 31.2088C42.4608 28.6562 38.9988 27.2222 35.3889 27.2222H13.6111Z" fill="black"/>
</svg>
