<svg width="30" height="32" viewBox="0 0 30 32" fill="none" xmlns="http://www.w3.org/2000/svg">
<path d="M8.03624 3.21734C8.19384 3.0167 8.2714 2.75816 8.25229 2.49721C8.23318 2.23626 8.11891 1.99371 7.93401 1.82162C7.74912 1.64953 7.50834 1.56163 7.26336 1.57678C7.01839 1.59194 6.78875 1.70894 6.62374 1.90267L5.00874 3.876C4.09297 4.99542 3.57529 6.42263 3.54624 7.908L3.47499 11.5333C3.47245 11.6647 3.49418 11.7952 3.53894 11.9176C3.5837 12.04 3.65062 12.1517 3.73588 12.2465C3.82114 12.3413 3.92306 12.4172 4.03583 12.47C4.1486 12.5227 4.27 12.5513 4.39312 12.554C4.51623 12.5567 4.63864 12.5335 4.75336 12.4858C4.86807 12.438 4.97285 12.3667 5.06171 12.2757C5.15056 12.1848 5.22175 12.0761 5.27122 11.9558C5.32068 11.8355 5.34745 11.706 5.34999 11.5747L5.41999 7.95067C5.44005 6.9343 5.79446 5.95782 6.42124 5.192L8.03624 3.21734Z" fill="black"/>
<path fill-rule="evenodd" clip-rule="evenodd" d="M7.79625 10.2667C7.88019 8.84019 8.47065 7.50145 9.4474 6.52299C10.4242 5.54453 11.7138 4.99991 13.0537 5.00001H13.75V4.00001C13.75 3.64638 13.8817 3.30724 14.1161 3.0572C14.3505 2.80715 14.6685 2.66667 15 2.66667C15.3315 2.66667 15.6495 2.80715 15.8839 3.0572C16.1183 3.30724 16.25 3.64638 16.25 4.00001V5.00001H16.9462C18.2862 4.99991 19.5758 5.54453 20.5526 6.52299C21.5294 7.50145 22.1198 8.84019 22.2037 10.2667L22.48 14.9787C22.5853 16.7753 23.1508 18.5066 24.115 19.984C24.3142 20.2894 24.4359 20.6446 24.4683 21.0151C24.5007 21.3855 24.4427 21.7586 24.2999 22.0981C24.157 22.4375 23.9343 22.7318 23.6533 22.9522C23.3723 23.1726 23.0426 23.3117 22.6962 23.356L18.4375 23.9V25.3333C18.4375 26.3058 18.0753 27.2384 17.4307 27.9261C16.786 28.6137 15.9117 29 15 29C14.0883 29 13.214 28.6137 12.5693 27.9261C11.9247 27.2384 11.5625 26.3058 11.5625 25.3333V23.9L7.30375 23.3547C6.95762 23.3103 6.62813 23.1712 6.34731 22.9508C6.06648 22.7305 5.84385 22.4364 5.70106 22.0971C5.55827 21.7579 5.50017 21.385 5.5324 21.0148C5.56463 20.6445 5.6861 20.2894 5.885 19.984C6.84912 18.5066 7.41466 16.7753 7.52 14.9787L7.79625 10.2667ZM13.0537 7.00001C12.1907 6.99989 11.3601 7.35063 10.731 7.98082C10.1019 8.611 9.72156 9.47325 9.6675 10.392L9.3925 15.104C9.26543 17.2653 8.5849 19.348 7.425 21.1253C7.41058 21.1474 7.40177 21.1731 7.39942 21.1999C7.39706 21.2267 7.40125 21.2537 7.41157 21.2783C7.42188 21.3028 7.43798 21.3241 7.4583 21.3401C7.47861 21.356 7.50245 21.3661 7.5275 21.3693L12.1987 21.968C14.06 22.2053 15.94 22.2053 17.8012 21.968L22.4725 21.3693C22.4975 21.3661 22.5214 21.356 22.5417 21.3401C22.562 21.3241 22.5781 21.3028 22.5884 21.2783C22.5987 21.2537 22.6029 21.2267 22.6006 21.1999C22.5982 21.1731 22.5894 21.1474 22.575 21.1253C21.4155 19.3479 20.7354 17.2652 20.6087 15.104L20.3325 10.392C20.2784 9.47325 19.8981 8.611 19.269 7.98082C18.6399 7.35063 17.8093 6.99989 16.9462 7.00001H13.0537ZM15 27C14.1375 27 13.4375 26.2533 13.4375 25.3333V24.3333H16.5625V25.3333C16.5625 26.2533 15.8625 27 15 27Z" fill="black"/>
<path d="M22.0537 1.80667C21.8665 1.98104 21.7518 2.22759 21.7349 2.49213C21.718 2.75666 21.8004 3.01752 21.9637 3.21734L23.5787 5.19067C24.2053 5.95702 24.5593 6.93402 24.5787 7.95067L24.65 11.5733C24.6551 11.8386 24.7588 12.0907 24.9383 12.2744C25.1177 12.4581 25.3582 12.5582 25.6069 12.5527C25.8555 12.5472 26.0919 12.4366 26.2641 12.2452C26.4363 12.0538 26.5301 11.7972 26.525 11.532L26.4537 7.90801C26.4247 6.42263 25.907 4.99543 24.9912 3.87601L23.3762 1.90267C23.2128 1.70292 22.9816 1.5806 22.7336 1.5626C22.4856 1.54459 22.2411 1.63239 22.0537 1.80667Z" fill="black"/>
</svg>
