<svg width="34" height="36" viewBox="0 0 34 36" fill="none" xmlns="http://www.w3.org/2000/svg">
<path d="M30.8911 15.0623H29.75V15H17V21H25.0063C23.8383 24.4928 20.6996 27 17 27C12.3059 27 8.50001 22.9702 8.50001 18C8.50001 13.0297 12.3059 9 17 9C19.1668 9 21.1381 9.8655 22.6391 11.2792L26.6461 7.0365C24.1159 4.53975 20.7315 3 17 3C9.17647 3 2.83334 9.71625 2.83334 18C2.83334 26.2838 9.17647 33 17 33C24.8236 33 31.1667 26.2838 31.1667 18C31.1667 16.9943 31.0689 16.0125 30.8911 15.0623Z" fill="#FFC107"/>
<path d="M4.46674 11.0182L9.12119 14.6325C10.3806 11.331 13.4307 9 17 9C19.1668 9 21.1381 9.8655 22.639 11.2792L26.6461 7.0365C24.1159 4.53975 20.7315 3 17 3C11.5586 3 6.83965 6.25275 4.46674 11.0182Z" fill="#FF3D00"/>
<path d="M17 33C20.6592 33 23.9842 31.5173 26.498 29.106L22.1135 25.1775C20.6433 26.3613 18.8469 27.0016 17 27C13.3152 27 10.1865 24.5123 9.00787 21.0405L4.38812 24.8093C6.73271 29.667 11.4941 33 17 33Z" fill="#4CAF50"/>
<path d="M30.8911 15.0623H29.75V15H17V21H25.0063C24.4476 22.6623 23.4411 24.1149 22.1113 25.1782L22.1135 25.1768L26.498 29.1052C26.1878 29.4037 31.1667 25.5 31.1667 18C31.1667 16.9943 31.0689 16.0125 30.8911 15.0623Z" fill="#1976D2"/>
</svg>
