<svg width="32" height="32" viewBox="0 0 32 32" fill="none" xmlns="http://www.w3.org/2000/svg">
<path fill-rule="evenodd" clip-rule="evenodd" d="M29.6872 20.6972C29.6304 20.6493 29.5738 20.6012 29.5175 20.5527C28.8375 19.9701 27.6969 18.9959 26.1998 18.6388C25.3305 18.4285 24.42 18.462 23.5685 18.7356C22.6117 19.0392 21.6747 19.645 20.7837 20.5359C20.283 21.0366 19.7172 21.2779 19.0508 21.2714C17.666 21.2598 15.9863 20.1953 14.696 19.063L13.8421 18.2418L13.7976 18.2001L13.7576 18.1572L12.9369 17.304C11.804 16.0137 10.7389 14.334 10.7273 12.9492C10.7218 12.2837 10.9621 11.7169 11.4628 11.2163C12.3537 10.3253 12.9595 9.38856 13.2631 8.43147C13.5368 7.57987 13.5703 6.66927 13.3598 5.79987C13.0054 4.3045 12.0308 3.16476 11.448 2.4832L11.446 2.48085L11.4245 2.45575L11.4242 2.45537C11.3812 2.40504 11.3402 2.35704 11.3018 2.31117C10.7424 1.64698 9.88599 1.04021 8.95212 0.646662C7.80342 0.162793 6.61213 0.0227933 5.50762 0.243115C4.41085 0.462146 3.42989 1.02085 2.59473 1.90375C1.70409 2.84536 0.988286 4.15891 0.465708 5.80696C-0.101709 7.60663 -0.151386 9.59759 0.32087 11.725C0.699578 13.4318 1.41764 15.2411 2.4557 17.1079C3.87827 19.664 5.62536 21.8233 6.76342 23.1104L7.56987 24.0024C7.56987 24.0024 7.65794 24.0901 7.78439 24.214C7.91084 24.3379 7.996 24.4285 7.996 24.4285L8.88535 25.2349C10.1734 26.3717 12.3324 28.1201 14.8918 29.5443C16.7569 30.582 18.5692 31.3004 20.2747 31.6791C21.1944 31.8878 22.1341 31.9954 23.0772 31.9998C24.1335 32.005 25.1843 31.8476 26.1927 31.533C27.8414 31.0117 29.1549 30.2959 30.0959 29.404C30.9788 28.5688 31.5375 27.5888 31.7565 26.4911C31.9769 25.3866 31.8372 24.1953 31.353 23.0466C30.9595 22.113 30.3527 21.2566 29.6872 20.6972ZM29.4775 26.0372C29.3546 26.654 29.0259 27.2191 28.4988 27.7172C27.8162 28.3646 26.8037 28.903 25.4937 29.3185C24.0885 29.7627 22.5021 29.794 20.7789 29.4117C19.2914 29.0817 17.6911 28.444 16.0224 27.5149C12.9824 25.823 10.535 23.6266 9.62277 22.7608L9.46986 22.6156L9.43599 22.5808L9.41728 22.5621L9.38277 22.5282L9.23729 22.3753C8.37148 21.4643 6.17536 19.0172 4.48408 15.9782C3.55666 14.3095 2.9186 12.7092 2.5886 11.2218C2.20635 9.49856 2.23764 7.91212 2.68183 6.50696C3.09634 5.19568 3.63505 4.18439 4.28247 3.49891C4.78053 2.97246 5.34698 2.64311 5.96246 2.5202C7.41116 2.22988 8.94503 3.11697 9.52599 3.80665C9.55773 3.8443 9.59112 3.88349 9.62582 3.9242L9.68148 3.98955C11.0715 5.61567 12.1282 7.26599 9.82083 9.5734C8.87051 10.5237 8.39406 11.666 8.40503 12.9682C8.41632 14.3205 8.96567 15.7972 10.0373 17.3572C10.6434 18.2288 11.3312 19.0405 12.0915 19.7814L12.1505 19.8385L12.2182 19.9085C12.9591 20.6691 13.7708 21.3573 14.6424 21.9637C16.2024 23.0353 17.6792 23.5843 19.0314 23.5959H19.0743C20.3582 23.5959 21.4853 23.1198 22.425 22.1801C24.7334 19.8717 26.384 20.9282 28.0098 22.3185C28.0743 22.3737 28.1353 22.4256 28.1927 22.474C28.8808 23.0546 29.7682 24.5888 29.4791 26.0372H29.4775ZM18.7248 8.00392C18.507 7.78613 18.3847 7.49076 18.3847 7.18276C18.3847 6.5414 18.9046 6.02148 19.546 6.02148C23.0981 6.02166 25.9775 8.90127 25.9775 12.4534C25.9775 13.0947 25.4576 13.6147 24.8163 13.6147C24.1749 13.6147 23.655 13.0947 23.655 12.4534C23.655 10.184 21.8154 8.34423 19.546 8.34405C19.238 8.34405 18.9426 8.2217 18.7248 8.00392Z" fill="#C0C4CC"/>
<path fill-rule="evenodd" clip-rule="evenodd" d="M19.5218 2.32258C22.2151 2.32258 24.7981 3.39249 26.7025 5.29694C28.607 7.2014 29.6769 9.78439 29.6769 12.4777C29.6769 13.1191 30.1968 13.639 30.8382 13.639C31.4795 13.639 31.9995 13.1191 31.9995 12.4777C32.002 9.16762 30.6882 5.99238 28.3477 3.6518C26.0071 1.31122 22.8318 -0.00256644 19.5218 3.76403e-06C18.8804 3.76403e-06 18.3605 0.519929 18.3605 1.16129C18.3605 1.80265 18.8804 2.32258 19.5218 2.32258Z" fill="#C0C4CC"/>
</svg>
