<svg width="36" height="36" viewBox="0 0 36 36" fill="none" xmlns="http://www.w3.org/2000/svg">
<path fill-rule="evenodd" clip-rule="evenodd" d="M17.7559 0C24.682 0 30.729 4.70478 32.4742 11.3131C34.2013 11.6429 35.5109 13.1647 35.511 14.9867V19.2006C35.511 21.2625 33.8333 22.9401 31.7712 22.9401C31.1051 22.94 30.5652 22.4 30.5652 21.7339C30.5652 21.0678 31.1051 20.5278 31.7712 20.5277C32.5031 20.5277 33.0986 19.9324 33.0986 19.2006V14.9865C33.0986 14.2546 32.5031 13.659 31.7712 13.659H31.5005C30.9253 13.659 30.4302 13.2529 30.3176 12.6888C29.1303 6.73423 23.8473 2.41238 17.7559 2.41238C11.7036 2.41238 6.42561 6.73729 5.20607 12.6962C5.09119 13.2574 4.59738 13.6604 4.02449 13.6605H4.0187L3.7342 13.6592C3.00791 13.6592 2.41238 14.2547 2.41238 14.9867V19.2006C2.41238 19.9324 3.00791 20.5277 3.73983 20.5277C4.40599 20.5277 4.94602 21.0678 4.94602 21.7339V24.5032C4.94602 28.4645 8.16928 31.6872 12.1312 31.6872H13.3125C13.7843 30.5719 14.8895 29.7874 16.1745 29.7874H19.3351C21.0478 29.7874 22.4414 31.181 22.4414 32.8941C22.4414 34.6067 21.0478 36.0001 19.3351 36.0001H16.1745C14.8892 36.0001 13.7838 35.2153 13.3121 34.0996H12.1312C6.83909 34.0996 2.53364 29.7946 2.53364 24.5032V22.7407C1.06161 22.2378 0 20.8409 0 19.2008V14.9867C0 13.1579 1.31957 11.6315 3.05616 11.3094C4.83264 4.70301 10.8724 0 17.7559 0ZM19.3352 32.1998H16.1747C15.7915 32.2002 15.4811 32.5109 15.481 32.8941C15.4815 33.277 15.7918 33.5873 16.1747 33.5877H19.3352C19.7182 33.5873 20.0286 33.277 20.0292 32.8941C20.0289 32.5109 19.7184 32.2002 19.3352 32.1998Z" fill="#C0C4CC"/>
<path fill-rule="evenodd" clip-rule="evenodd" d="M6.45793 17.0922C6.45793 10.8636 11.5259 5.79618 17.7551 5.79618C23.9843 5.79618 29.0521 10.8636 29.0521 17.0922C29.0521 23.3218 23.9843 28.39 17.7551 28.39C11.5259 28.39 6.45793 23.3218 6.45793 17.0922ZM8.87031 17.0922C8.87031 21.9916 12.856 25.9777 17.7551 25.9777C22.6542 25.9777 26.6397 21.9918 26.6397 17.0922C26.6397 12.1938 22.6542 8.20856 17.7551 8.20856C12.856 8.20856 8.87031 12.1938 8.87031 17.0922Z" fill="#C0C4CC"/>
</svg>
