<svg width="8" height="8" viewBox="0 0 8 8" fill="none" xmlns="http://www.w3.org/2000/svg">
<path fill-rule="evenodd" clip-rule="evenodd" d="M4.7505 4.00449L7.84365 0.911365C8.05215 0.702861 8.05215 0.364864 7.84365 0.156351C7.63515 -0.052117 7.29714 -0.052117 7.08867 0.156351L3.99552 3.24951L0.944153 0.198147C0.738165 -0.00786875 0.404156 -0.00786875 0.198167 0.198147C-0.00784853 0.404145 -0.00784853 0.738153 0.198167 0.944151L3.24952 3.99551L0.156371 7.08866C-0.0521237 7.29714 -0.0521237 7.63516 0.156371 7.84363C0.364875 8.05213 0.702881 8.05213 0.911358 7.84363L4.00451 4.75048L7.04801 7.79399C7.25401 8 7.58801 8 7.794 7.79399C8.00001 7.58799 8.00001 7.25398 7.794 7.048L4.7505 4.00449Z" fill="#C0C4CC"/>
</svg>
