<svg width="15" height="15" viewBox="0 0 15 15" fill="none" xmlns="http://www.w3.org/2000/svg">
<path fill-rule="evenodd" clip-rule="evenodd" d="M0 7.5C0 11.6421 3.35787 15 7.5 15C11.6421 15 15 11.6421 15 7.5C15 3.35787 11.6421 0 7.5 0C3.35787 0 0 3.35787 0 7.5ZM3.75 6.875H6.875V3.75C6.875 3.40482 7.15482 3.12499 7.5 3.12499C7.84518 3.12499 8.125 3.40482 8.125 3.75V6.875H11.25C11.5952 6.875 11.875 7.15482 11.875 7.5C11.875 7.84518 11.5952 8.125 11.25 8.125H8.125V11.25C8.125 11.5952 7.84518 11.875 7.5 11.875C7.15482 11.875 6.875 11.5952 6.875 11.25V8.125H3.75C3.40482 8.125 3.12499 7.84518 3.12499 7.5C3.12499 7.15482 3.40482 6.875 3.75 6.875Z" fill="#C0C4CC"/>
</svg>
