<svg width="20" height="20" viewBox="0 0 20 20" fill="none" xmlns="http://www.w3.org/2000/svg">
<path fill-rule="evenodd" clip-rule="evenodd" d="M11.1111 10.0001C11.1111 9.75966 11.1891 9.52573 11.3333 9.3334L17.9999 0.444546C18.2381 0.126934 18.6276 -0.0394826 19.0218 0.0079903C19.4159 0.0554632 19.7548 0.309613 19.9107 0.674692C20.0666 1.03977 20.0159 1.46031 19.7777 1.77787L13.3333 10.3701V16.6667C13.3331 17.0875 13.0952 17.472 12.7189 17.66L8.27442 19.8823C7.93009 20.0543 7.52123 20.0359 7.19375 19.8336C6.86628 19.6313 6.66686 19.2739 6.66665 18.8889V10.3701L0.222228 1.77787C-0.030286 1.44119 -0.0709036 0.990734 0.117309 0.614308C0.305522 0.237883 0.690257 0.000103264 1.11111 0.000103267H14.4444C15.058 0.000197202 15.5553 0.497629 15.5553 1.11121C15.5553 1.72479 15.058 2.22222 14.4444 2.22232H3.33333L8.66664 9.3334C8.81089 9.52573 8.88887 9.75966 8.88887 10.0001V17.0912L11.1111 15.98V10.0001Z" fill="black"/>
</svg>
