<svg width="29" height="29" viewBox="0 0 29 29" fill="none" xmlns="http://www.w3.org/2000/svg">
<path d="M22.6562 0H6.34375C2.84019 0 0 2.84019 0 6.34375V22.6562C0 26.1598 2.84019 29 6.34375 29H22.6562C26.1598 29 29 26.1598 29 22.6562V6.34375C29 2.84019 26.1598 0 22.6562 0Z" fill="#F5F5F5"/>
<path d="M17.6777 9.86345C15.2786 8.28666 12.0381 8.93138 10.4397 11.2924C9.63796 12.4709 9.9638 14.0723 11.1633 14.8606C12.362 15.649 13.9811 15.3289 14.7808 14.1462C15.5805 12.9637 17.2007 12.6475 18.3993 13.4318C19.5998 14.2202 19.9227 15.8215 19.1219 17C20.7214 14.6349 20.0749 11.4402 17.6777 9.86345Z" fill="#FF4B55"/>
<path d="M9.87739 12C9.07561 13.1782 9.40147 14.7791 10.6011 15.5673C11.7998 16.3555 13.419 16.0354 14.2188 14.8531C15.0185 13.6708 16.6388 13.3547 17.8375 14.1388C19.0381 14.927 19.361 16.5279 18.5601 17.7061C16.9628 20.0747 13.7231 20.711 11.3238 19.1347C8.92667 17.5584 8.27792 14.3646 9.87739 12Z" fill="#41479B"/>
<path d="M19.7485 8.43122L20.6446 9.80059C20.7198 9.91565 20.6894 10.071 20.5765 10.1479L20.3492 10.3026C20.2359 10.3798 20.0824 10.3487 20.0067 10.2333L19.1095 8.86417C19.034 8.749 19.0646 8.59338 19.1778 8.51656L19.4062 8.36156C19.5196 8.28457 19.6729 8.31582 19.7485 8.43122Z" fill="#464655"/>
<path d="M21.131 10.5427L22.03 11.9112C22.1058 12.0268 22.0749 12.1831 21.9608 12.2598L21.7327 12.4131C21.6194 12.4892 21.467 12.4579 21.3916 12.3432L20.4931 10.9761C20.4175 10.861 20.4479 10.7053 20.5611 10.6283L20.7888 10.4735C20.9021 10.3965 21.0553 10.4274 21.131 10.5427Z" fill="#464655"/>
<path d="M20.7079 7.78018L22.9895 11.2617C23.065 11.3769 23.0343 11.5326 22.921 11.6094L22.6918 11.7648C22.5785 11.8416 22.4253 11.8105 22.3497 11.6952L20.0673 8.21405C19.9917 8.09876 20.0225 7.94297 20.1359 7.8662L20.3659 7.71058C20.4793 7.63376 20.6324 7.66495 20.7079 7.78018Z" fill="#464655"/>
<path d="M21.6647 7.13015L22.5627 8.50226C22.6383 8.61782 22.6073 8.77385 22.4934 8.85044L22.265 9.0039C22.1517 9.08004 21.9992 9.04873 21.9238 8.93379L21.0251 7.56351C20.9495 7.44828 20.9801 7.29254 21.0935 7.21572L21.3225 7.0605C21.4359 6.98356 21.5891 7.01481 21.6647 7.13015Z" fill="#464655"/>
<path d="M23.0481 9.24611L23.9448 10.6154C24.0202 10.7305 23.9897 10.8859 23.8766 10.9628L23.6489 11.1176C23.5355 11.1947 23.3821 11.1636 23.3065 11.0482L22.4098 9.67889C22.3344 9.56378 22.3649 9.40832 22.478 9.33145L22.7057 9.17662C22.8191 9.09952 22.9725 9.13065 23.0481 9.24611Z" fill="#464655"/>
<path d="M7.61079 16.658L9.89213 20.1358C9.96769 20.2509 9.93717 20.4066 9.8239 20.4835L9.5954 20.6386C9.48207 20.7155 9.32884 20.6845 9.25323 20.5692L6.97189 17.0915C6.89634 16.9763 6.9269 16.8206 7.04012 16.7437L7.26862 16.5886C7.38201 16.5117 7.53518 16.5428 7.61079 16.658Z" fill="#464655"/>
<path d="M6.65313 17.3085L7.54875 18.6745C7.62419 18.7896 7.59379 18.945 7.48074 19.022L7.25353 19.1766C7.14025 19.2537 6.98691 19.2228 6.91119 19.1075L6.01439 17.7418C5.93873 17.6267 5.96929 17.4709 6.08257 17.394L6.3109 17.239C6.42429 17.1621 6.57752 17.1932 6.65313 17.3085Z" fill="#464655"/>
<path d="M8.03725 19.4207L8.934 20.79C9.00938 20.9051 8.97887 21.0607 8.86577 21.1375L8.63788 21.2924C8.52449 21.3694 8.37115 21.3383 8.29554 21.2229L7.39824 19.8538C7.32274 19.7386 7.35331 19.583 7.46653 19.5062L7.69497 19.3511C7.80836 19.2741 7.9617 19.3053 8.03725 19.4207Z" fill="#464655"/>
<path d="M5.69527 17.9589L7.97516 21.4368C8.05066 21.5519 8.02015 21.7075 7.90699 21.7843L7.67915 21.9392C7.56582 22.0162 7.41254 21.9851 7.33687 21.8698L5.05565 18.3924C4.98004 18.2772 5.01066 18.1214 5.12405 18.0446L5.35322 17.8892C5.46655 17.8125 5.61972 17.8437 5.69527 17.9589Z" fill="#464655"/>
<path d="M6.97235 11.9114L9.25335 8.43084C9.32896 8.3155 9.48219 8.28437 9.59558 8.36135L9.82397 8.51641C9.93724 8.59329 9.96775 8.74897 9.8922 8.86414L7.6103 12.3427C7.53492 12.4576 7.3823 12.4889 7.26897 12.4127L7.04147 12.2596C6.92759 12.1829 6.89663 12.0269 6.97235 11.9114Z" fill="#464655"/>
<path d="M6.01408 11.2619L8.29554 7.7807C8.37115 7.6653 8.52449 7.63422 8.63787 7.71127L8.8657 7.86609C8.97881 7.94297 9.00932 8.09848 8.93388 8.21359L6.65304 11.695C6.57749 11.8104 6.4242 11.8415 6.31082 11.7646L6.08237 11.6095C5.96915 11.5327 5.93859 11.3771 6.01408 11.2619Z" fill="#464655"/>
<path d="M5.05536 10.615L7.33698 7.13039C7.41259 7.01493 7.56599 6.98379 7.67938 7.0609L7.90721 7.21578C8.02026 7.29266 8.05083 7.44806 7.9755 7.56317L5.69522 11.0483C5.61972 11.1637 5.46649 11.1949 5.35305 11.1181L5.12388 10.9627C5.01055 10.8859 4.97987 10.7303 5.05536 10.615Z" fill="#464655"/>
<path d="M19.1098 20.1356L20.0066 18.77C20.0824 18.6547 20.2357 18.6237 20.349 18.7009L20.5763 18.8556C20.6893 18.9325 20.7197 19.088 20.6443 19.2031L19.7486 20.569C19.673 20.6843 19.5197 20.7154 19.4064 20.6385L19.1781 20.4835C19.0647 20.4065 19.0342 20.2509 19.1098 20.1356Z" fill="#464655"/>
<path d="M20.493 18.0306L21.3912 16.6583C21.4667 16.5429 21.6199 16.5117 21.7334 16.5885L21.9622 16.7437C22.0757 16.8205 22.1063 16.9764 22.0305 17.0916L21.1304 18.4618C21.055 18.5767 20.9023 18.6079 20.7891 18.5316L20.5621 18.3787C20.4484 18.302 20.4174 18.1461 20.493 18.0306Z" fill="#464655"/>
<path d="M20.0673 20.7896L20.9647 19.4204C21.0403 19.3051 21.1934 19.2739 21.3068 19.3508L21.5362 19.5063C21.6494 19.5831 21.6801 19.7387 21.6046 19.8539L20.7079 21.2233C20.6324 21.3385 20.4793 21.3698 20.3659 21.293L20.1359 21.1374C20.0225 21.0606 19.9918 20.9049 20.0673 20.7896Z" fill="#464655"/>
<path d="M21.4519 18.674L22.3497 17.308C22.4253 17.1929 22.5783 17.1619 22.6916 17.2387L22.9207 17.394C23.0342 17.4709 23.0647 17.6267 22.989 17.742L22.0912 19.108C22.0156 19.2231 21.8626 19.2541 21.7493 19.1774L21.5201 19.022C21.4067 18.9451 21.3761 18.7892 21.4519 18.674Z" fill="#464655"/>
<path d="M21.0254 21.4363L21.9237 20.0695C21.9991 19.9547 22.1516 19.9235 22.2648 19.9996L22.4932 20.1531C22.6072 20.2297 22.6382 20.3858 22.5624 20.5014L21.6648 21.8701C21.5892 21.9853 21.4361 22.0164 21.3227 21.9396L21.0936 21.7844C20.9803 21.7074 20.9497 21.5515 21.0254 21.4363Z" fill="#464655"/>
<path d="M22.4103 19.3277L23.3064 17.9592C23.382 17.8438 23.5354 17.8127 23.6488 17.8898L23.8764 18.0444C23.9895 18.1213 24.02 18.277 23.9444 18.3921L23.0476 19.7587C22.9722 19.8737 22.8195 19.9049 22.7062 19.8286L22.4794 19.6757C22.3656 19.5991 22.3347 19.4432 22.4103 19.3277Z" fill="#464655"/>
</svg>
