<svg width="24" height="24" viewBox="0 0 24 24" fill="none" xmlns="http://www.w3.org/2000/svg">
<path fill-rule="evenodd" clip-rule="evenodd" d="M24 24C24 24 24 22.35 23.862 21.4872C23.7498 20.8062 22.806 19.9062 18.7938 18.4314C14.844 16.9812 15.0876 17.6874 15.0876 15.0186C15.0876 13.2876 15.969 14.2938 16.5312 11.0064C16.7502 9.7122 16.9248 10.575 17.4 8.5002C17.6502 7.4124 17.2314 7.3314 17.2812 6.8124C17.331 6.294 17.3814 5.8314 17.475 4.7688C17.5878 3.456 16.3686 0 12 0C7.6314 0 6.4122 3.456 6.531 4.7748C6.6252 5.8308 6.675 6.3 6.7248 6.819C6.7752 7.3374 6.3564 7.419 6.606 8.5062C7.0812 10.575 7.2564 9.7122 7.4748 11.0124C8.0376 14.3004 8.919 13.2936 8.919 15.0252C8.919 17.7 9.1626 16.9932 5.2122 18.4374C1.2 19.9062 0.2508 20.8128 0.144 21.4938C0 22.35 0 24 0 24H24Z" fill="#DCDFE6"/>
</svg>
