<svg width="14" height="14" viewBox="0 0 14 14" fill="none" xmlns="http://www.w3.org/2000/svg">
<path fill-rule="evenodd" clip-rule="evenodd" d="M11.6647 1.64335C10.5691 0.547782 9.24359 0 7.68812 0V5.58696H13.308C13.308 4.05345 12.7602 2.73891 11.6647 1.64335ZM12.1253 9.72758C12.6731 10.2314 12.947 10.8449 12.947 11.5679C12.947 12.247 12.7114 12.8222 12.2403 13.2933C11.7691 13.7644 11.194 14 10.5149 14C9.90121 14 9.36442 13.7974 8.9045 13.3922C8.44459 12.9869 8.1707 12.4885 8.08283 11.8967H6.60424C6.51637 12.4885 6.24808 12.9869 5.79939 13.3922C5.35069 13.7974 4.8195 14 4.20582 14C3.5267 14 2.9462 13.7644 2.46432 13.2933C1.98244 12.8222 1.7415 12.247 1.7415 11.5679C1.7415 10.6037 2.16869 9.88065 3.02309 9.39877L1.54449 6.30978H0V4.89639H2.43207L3.08969 6.30978H13.3101C13.3101 7.55865 12.9157 8.69792 12.1267 9.72758H12.1253ZM4.94476 12.3076C4.73631 12.5156 4.48976 12.6196 4.20512 12.6196C3.92048 12.6196 3.67393 12.5156 3.46547 12.3076C3.25701 12.0996 3.15302 11.853 3.15349 11.5679C3.15396 11.2828 3.25795 11.0363 3.46547 10.8283C3.67299 10.6203 3.91954 10.5163 4.20512 10.5163C4.49069 10.5163 4.73724 10.6203 4.94476 10.8283C5.15229 11.0363 5.25628 11.2828 5.25675 11.5679C5.25722 11.853 5.15322 12.0996 4.94476 12.3076ZM11.2545 12.3076C11.0461 12.5156 10.7995 12.6196 10.5149 12.6196C10.2303 12.6196 9.98371 12.5156 9.77525 12.3076C9.5668 12.0996 9.4628 11.853 9.46327 11.5679C9.46374 11.2828 9.56773 11.0363 9.77525 10.8283C9.98277 10.6203 10.2293 10.5163 10.5149 10.5163C10.8005 10.5163 11.047 10.6203 11.2545 10.8283C11.4621 11.0363 11.5661 11.2828 11.5665 11.5679C11.567 11.853 11.463 12.0996 11.2545 12.3076Z" fill="#C0C4CC"/>
</svg>
